<svg width="448" height="448" viewBox="0 0 448 448" fill="none" xmlns="http://www.w3.org/2000/svg">
<path d="M439.529 204.029L243.929 8.42929C238.512 3.0311 231.177 0 223.529 0C215.882 0 208.546 3.0311 203.129 8.42929L162.429 49.0293L213.929 100.529C241.029 91.4293 266.629 117.329 257.329 144.229L307.029 193.929C341.229 182.129 368.229 224.929 342.529 250.629C316.029 277.129 272.329 247.729 286.529 213.329L240.129 166.929V288.829C265.429 301.329 262.429 330.729 249.229 343.829C246.043 347.028 242.256 349.566 238.086 351.298C233.916 353.03 229.445 353.922 224.929 353.922C220.414 353.922 215.943 353.03 211.773 351.298C207.603 349.566 203.816 347.028 200.629 343.829C183.029 326.229 189.529 296.929 211.929 287.829V164.829C191.129 156.329 187.329 134.129 193.329 119.829L142.529 68.9293L8.42929 203.029C3.0311 208.446 0 215.782 0 223.429C0 231.077 3.0311 238.412 8.42929 243.829L204.029 439.429C209.446 444.827 216.782 447.859 224.429 447.859C232.077 447.859 239.412 444.827 244.829 439.429L439.529 244.729C444.927 239.312 447.959 231.977 447.959 224.329C447.959 216.682 444.927 209.346 439.529 203.929V204.029Z" fill="#00D2DF"/>
</svg>
