<svg xmlns="http://www.w3.org/2000/svg" xmlns:xlink="http://www.w3.org/1999/xlink" width="500" zoomAndPan="magnify" viewBox="0 0 375 374.999991" height="500" preserveAspectRatio="xMidYMid meet" version="1.0"><defs><clipPath id="312a5e0acb"><path d="M 105 12.773438 L 269 12.773438 L 269 189 L 105 189 Z M 105 12.773438 " clip-rule="nonzero"/></clipPath><clipPath id="b1a26a20a8"><path d="M 119.195312 105.175781 L 270.570312 105.175781 L 270.570312 362.117188 L 119.195312 362.117188 Z M 119.195312 105.175781 " clip-rule="nonzero"/></clipPath></defs><g clip-path="url(#312a5e0acb)"><path fill="#ffffff" d="M 256.042969 12.863281 C 258.53125 16.082031 257.714844 23.121094 256.941406 26.753906 C 255.964844 31.335938 254.480469 34.804688 251.453125 38.371094 C 245.230469 45.703125 237.199219 51.304688 228.796875 55.867188 C 214.660156 63.546875 199.550781 69.105469 184.84375 75.460938 C 167.070312 83.136719 147.464844 90.253906 132.003906 101.980469 C 118.683594 111.652344 109.417969 123.824219 106.703125 140.347656 C 104.058594 156.433594 107.546875 172.871094 111.683594 188.390625 C 109.472656 170.113281 121.269531 152.640625 136.0625 141.683594 C 151.46875 130.273438 170.027344 124.105469 188.261719 118.1875 C 206.496094 112.273438 225.082031 106.269531 240.667969 95.109375 C 256.257812 83.953125 268.640625 66.574219 268.84375 47.40625 C 268.976562 34.765625 263.84375 22.957031 256.042969 12.863281 " fill-opacity="1" fill-rule="nonzero"/></g><g clip-path="url(#b1a26a20a8)"><path fill="#ffffff" d="M 270.082031 105.292969 C 264 127.574219 236.132812 134.300781 216.949219 141.445312 C 197.761719 148.585938 176.335938 151.855469 158.320312 161.570312 C 140.300781 171.289062 127.113281 184.519531 121.421875 204.183594 C 113.882812 230.234375 126.585938 258.070312 143.613281 279.175781 C 160.640625 300.285156 182.210938 317.671875 197.203125 340.273438 C 201.769531 347.15625 205.636719 354.492188 208.804688 362.117188 C 210.359375 347.3125 205.324219 331.675781 197.820312 318.457031 C 188.074219 301.289062 174.472656 286.566406 164.546875 269.496094 C 154.621094 252.429688 148.550781 231.382812 155.625 212.949219 C 162.324219 195.496094 179.265625 184.160156 196.328125 176.53125 C 213.394531 168.902344 232.421875 161.488281 247.679688 150.691406 C 262.9375 139.894531 274.160156 123.535156 270.082031 105.292969 " fill-opacity="1" fill-rule="nonzero"/></g></svg>