<svg xmlns="http://www.w3.org/2000/svg" xmlns:xlink="http://www.w3.org/1999/xlink" width="500" zoomAndPan="magnify" viewBox="0 0 375 374.999991" height="500" preserveAspectRatio="xMidYMid meet" version="1.0"><defs><g/><clipPath id="fd3ac3bc51"><path d="M 90.070312 127.695312 L 143 127.695312 L 143 185 L 90.070312 185 Z M 90.070312 127.695312 " clip-rule="nonzero"/></clipPath><clipPath id="87fc7431e4"><path d="M 94.921875 157.347656 L 143.320312 157.347656 L 143.320312 239.800781 L 94.921875 239.800781 Z M 94.921875 157.347656 " clip-rule="nonzero"/></clipPath></defs><g clip-path="url(#fd3ac3bc51)"><path fill="#ffffff" d="M 138.835938 127.722656 C 139.636719 128.757812 139.375 131.015625 139.125 132.179688 C 138.8125 133.652344 138.335938 134.765625 137.363281 135.910156 C 135.367188 138.261719 132.792969 140.058594 130.09375 141.523438 C 125.558594 143.988281 120.710938 145.773438 115.988281 147.8125 C 110.285156 150.277344 103.996094 152.558594 99.035156 156.324219 C 94.761719 159.425781 91.785156 163.332031 90.914062 168.632812 C 90.066406 173.796875 91.1875 179.070312 92.511719 184.050781 C 91.804688 178.1875 95.589844 172.578125 100.335938 169.0625 C 105.28125 165.402344 111.234375 163.421875 117.085938 161.523438 C 122.9375 159.625 128.902344 157.699219 133.90625 154.117188 C 138.90625 150.535156 142.878906 144.960938 142.945312 138.808594 C 142.988281 134.753906 141.339844 130.964844 138.835938 127.722656 " fill-opacity="1" fill-rule="nonzero"/></g><g clip-path="url(#87fc7431e4)"><path fill="#ffffff" d="M 143.34375 157.386719 C 141.390625 164.535156 132.449219 166.695312 126.292969 168.984375 C 120.136719 171.277344 113.261719 172.328125 107.480469 175.445312 C 101.695312 178.5625 97.464844 182.808594 95.636719 189.117188 C 93.21875 197.476562 97.296875 206.410156 102.757812 213.183594 C 108.222656 219.957031 115.144531 225.539062 119.957031 232.789062 C 121.421875 235 122.664062 237.351562 123.679688 239.800781 C 124.179688 235.050781 122.5625 230.03125 120.15625 225.789062 C 117.027344 220.28125 112.664062 215.554688 109.476562 210.078125 C 106.292969 204.601562 104.34375 197.847656 106.613281 191.933594 C 108.765625 186.332031 114.199219 182.695312 119.675781 180.246094 C 125.152344 177.796875 131.257812 175.417969 136.15625 171.953125 C 141.050781 168.488281 144.652344 163.238281 143.34375 157.386719 " fill-opacity="1" fill-rule="nonzero"/></g><g fill="#fffbfa" fill-opacity="1"><g transform="translate(128.599919, 204.400007)"><g><path d="M 4.890625 -10.9375 L 4.890625 -7.78125 L 9.4375 -7.78125 L 9.4375 -5.59375 L 4.890625 -5.59375 L 4.890625 -2.234375 L 10.390625 -2.234375 L 10.390625 0 L 1.765625 0 L 1.765625 -13.171875 L 10.375 -13.171875 L 10.0625 -10.9375 Z M 4.890625 -10.9375 "/></g></g></g><g fill="#fffbfa" fill-opacity="1"><g transform="translate(155.197751, 204.400007)"><g><path d="M 1.765625 0 L 1.765625 -13.171875 L 4.890625 -13.171875 L 4.890625 -2.453125 L 10.59375 -2.453125 L 10.265625 0 Z M 1.765625 0 "/></g></g></g><g fill="#fffbfa" fill-opacity="1"><g transform="translate(181.795584, 204.400007)"><g><path d="M 9.96875 -13.171875 L 9.96875 -10.890625 L 7.265625 -10.890625 L 7.265625 -2.296875 L 9.96875 -2.296875 L 9.96875 0 L 1.421875 0 L 1.421875 -2.296875 L 4.140625 -2.296875 L 4.140625 -10.890625 L 1.421875 -10.890625 L 1.421875 -13.171875 Z M 9.96875 -13.171875 "/></g></g></g><g fill="#fffbfa" fill-opacity="1"><g transform="translate(208.393419, 204.400007)"><g><path d="M 7.75 -8.875 C 7.75 -9.34375 7.660156 -9.726562 7.484375 -10.03125 C 7.304688 -10.34375 7.039062 -10.570312 6.6875 -10.71875 C 6.34375 -10.863281 5.90625 -10.9375 5.375 -10.9375 L 4.296875 -10.9375 L 4.296875 -6.640625 L 5.53125 -6.640625 C 5.988281 -6.640625 6.378906 -6.71875 6.703125 -6.875 C 7.035156 -7.03125 7.289062 -7.273438 7.46875 -7.609375 C 7.65625 -7.941406 7.75 -8.363281 7.75 -8.875 Z M 10.953125 -8.875 C 10.953125 -7.863281 10.734375 -7.023438 10.296875 -6.359375 C 9.859375 -5.691406 9.242188 -5.191406 8.453125 -4.859375 C 7.671875 -4.535156 6.765625 -4.375 5.734375 -4.375 L 4.296875 -4.375 L 4.296875 0 L 1.1875 0 L 1.1875 -13.171875 L 5.328125 -13.171875 C 7.117188 -13.171875 8.503906 -12.8125 9.484375 -12.09375 C 10.460938 -11.382812 10.953125 -10.3125 10.953125 -8.875 Z M 10.953125 -8.875 "/></g></g></g><g fill="#fffbfa" fill-opacity="1"><g transform="translate(234.991249, 204.400007)"><g><path d="M 4.890625 -10.9375 L 4.890625 -7.78125 L 9.4375 -7.78125 L 9.4375 -5.59375 L 4.890625 -5.59375 L 4.890625 -2.234375 L 10.390625 -2.234375 L 10.390625 0 L 1.765625 0 L 1.765625 -13.171875 L 10.375 -13.171875 L 10.0625 -10.9375 Z M 4.890625 -10.9375 "/></g></g></g></svg>