<svg xmlns="http://www.w3.org/2000/svg" xmlns:xlink="http://www.w3.org/1999/xlink" width="40" zoomAndPan="magnify" viewBox="0 0 30 30.000001" height="40" preserveAspectRatio="xMidYMid meet" version="1.0"><defs><clipPath id="6994bd78a2"><path d="M 8.070312 0 L 21.859375 0 L 21.859375 15 L 8.070312 15 Z M 8.070312 0 " clip-rule="nonzero"/></clipPath><clipPath id="c2eee017a7"><path d="M 9.324219 7.679688 L 21.859375 7.679688 L 21.859375 29.019531 L 9.324219 29.019531 Z M 9.324219 7.679688 " clip-rule="nonzero"/></clipPath></defs><g clip-path="url(#6994bd78a2)"><path fill="#e5f1f9" d="M 20.691406 0.0117188 C 20.898438 0.277344 20.832031 0.863281 20.765625 1.164062 C 20.683594 1.546875 20.5625 1.835938 20.308594 2.128906 C 19.792969 2.738281 19.125 3.203125 18.429688 3.582031 C 17.253906 4.222656 16 4.683594 14.777344 5.210938 C 13.300781 5.847656 11.671875 6.4375 10.390625 7.414062 C 9.28125 8.21875 8.511719 9.226562 8.289062 10.601562 C 8.066406 11.9375 8.359375 13.300781 8.699219 14.589844 C 8.515625 13.074219 9.496094 11.621094 10.726562 10.710938 C 12.003906 9.761719 13.546875 9.25 15.0625 8.757812 C 16.574219 8.269531 18.121094 7.769531 19.414062 6.84375 C 20.707031 5.917969 21.738281 4.472656 21.753906 2.878906 C 21.765625 1.832031 21.339844 0.851562 20.691406 0.0117188 " fill-opacity="1" fill-rule="nonzero"/></g><g clip-path="url(#c2eee017a7)"><path fill="#e5f1f9" d="M 21.855469 7.6875 C 21.351562 9.539062 19.039062 10.097656 17.445312 10.691406 C 15.851562 11.285156 14.070312 11.554688 12.574219 12.363281 C 11.078125 13.171875 9.984375 14.269531 9.511719 15.902344 C 8.882812 18.066406 9.9375 20.378906 11.351562 22.132812 C 12.765625 23.882812 14.558594 25.328125 15.804688 27.207031 C 16.183594 27.777344 16.503906 28.386719 16.769531 29.019531 C 16.898438 27.789062 16.480469 26.492188 15.855469 25.394531 C 15.046875 23.96875 13.917969 22.746094 13.09375 21.328125 C 12.265625 19.910156 11.761719 18.160156 12.351562 16.628906 C 12.90625 15.179688 14.3125 14.238281 15.730469 13.605469 C 17.148438 12.972656 18.730469 12.355469 19.996094 11.460938 C 21.265625 10.5625 22.195312 9.203125 21.855469 7.6875 " fill-opacity="1" fill-rule="nonzero"/></g></svg>