<svg xmlns="http://www.w3.org/2000/svg" xmlns:xlink="http://www.w3.org/1999/xlink" width="500" zoomAndPan="magnify" viewBox="0 0 375 374.999991" height="500" preserveAspectRatio="xMidYMid meet" version="1.0"><defs><g/><clipPath id="9c662ddbc2"><path d="M 90.070312 127.695312 L 143 127.695312 L 143 185 L 90.070312 185 Z M 90.070312 127.695312 " clip-rule="nonzero"/></clipPath><clipPath id="77cfa30d67"><path d="M 94.921875 157.347656 L 143.320312 157.347656 L 143.320312 239.800781 L 94.921875 239.800781 Z M 94.921875 157.347656 " clip-rule="nonzero"/></clipPath></defs><g clip-path="url(#9c662ddbc2)"><path fill="#ffffff" d="M 138.835938 127.722656 C 139.636719 128.757812 139.375 131.015625 139.125 132.179688 C 138.8125 133.652344 138.335938 134.765625 137.363281 135.910156 C 135.367188 138.261719 132.792969 140.058594 130.09375 141.523438 C 125.558594 143.988281 120.710938 145.773438 115.988281 147.8125 C 110.285156 150.277344 103.996094 152.558594 99.035156 156.324219 C 94.761719 159.425781 91.785156 163.332031 90.914062 168.632812 C 90.066406 173.796875 91.1875 179.070312 92.511719 184.050781 C 91.804688 178.1875 95.589844 172.578125 100.335938 169.0625 C 105.28125 165.402344 111.234375 163.421875 117.085938 161.523438 C 122.9375 159.625 128.902344 157.699219 133.90625 154.117188 C 138.90625 150.535156 142.878906 144.960938 142.945312 138.808594 C 142.988281 134.753906 141.339844 130.964844 138.835938 127.722656 " fill-opacity="1" fill-rule="nonzero"/></g><g clip-path="url(#77cfa30d67)"><path fill="#ffffff" d="M 143.34375 157.386719 C 141.390625 164.535156 132.449219 166.695312 126.292969 168.984375 C 120.136719 171.277344 113.261719 172.328125 107.480469 175.445312 C 101.695312 178.5625 97.464844 182.808594 95.636719 189.117188 C 93.21875 197.476562 97.296875 206.410156 102.757812 213.183594 C 108.222656 219.957031 115.144531 225.539062 119.957031 232.789062 C 121.421875 235 122.664062 237.351562 123.679688 239.800781 C 124.179688 235.050781 122.5625 230.03125 120.15625 225.789062 C 117.027344 220.28125 112.664062 215.554688 109.476562 210.078125 C 106.292969 204.601562 104.34375 197.847656 106.613281 191.933594 C 108.765625 186.332031 114.199219 182.695312 119.675781 180.246094 C 125.152344 177.796875 131.257812 175.417969 136.15625 171.953125 C 141.050781 168.488281 144.652344 163.238281 143.34375 157.386719 " fill-opacity="1" fill-rule="nonzero"/></g><g fill="#fffbfa" fill-opacity="1"><g transform="translate(127.62683, 198.118669)"><g><path d="M 8.976562 0 C 9.1875 0 9.296875 -0.109375 9.296875 -0.320312 L 9.296875 -2.398438 C 9.296875 -2.609375 9.1875 -2.71875 8.976562 -2.71875 L 4.382812 -2.71875 L 4.382812 -4.125 L 8.351562 -4.125 C 8.5625 -4.125 8.671875 -4.242188 8.671875 -4.445312 L 8.671875 -6.367188 C 8.671875 -6.578125 8.5625 -6.6875 8.351562 -6.6875 L 4.382812 -6.6875 L 4.382812 -9.28125 L 8.976562 -9.28125 C 9.1875 -9.28125 9.296875 -9.390625 9.296875 -9.601562 L 9.296875 -11.679688 C 9.296875 -11.890625 9.1875 -12 8.976562 -12 L 1.507812 -12 C 1.296875 -12 1.1875 -11.890625 1.1875 -11.679688 L 1.1875 -0.320312 C 1.1875 -0.109375 1.296875 0 1.507812 0 Z M 8.976562 0 "/></g></g></g><g fill="#fffbfa" fill-opacity="1"><g transform="translate(150.635498, 198.118669)"><g><path d="M 8 0 C 8.210938 0 8.320312 -0.109375 8.320312 -0.320312 L 8.320312 -2.398438 C 8.320312 -2.609375 8.210938 -2.71875 8 -2.71875 L 4.382812 -2.71875 L 4.382812 -11.679688 C 4.382812 -11.890625 4.273438 -12 4.0625 -12 L 1.507812 -12 C 1.296875 -12 1.1875 -11.890625 1.1875 -11.679688 L 1.1875 -0.320312 C 1.1875 -0.109375 1.296875 0 1.507812 0 Z M 8 0 "/></g></g></g><g fill="#fffbfa" fill-opacity="1"><g transform="translate(172.089852, 198.118669)"><g><path d="M 4.0625 0 C 4.273438 0 4.382812 -0.109375 4.382812 -0.320312 L 4.382812 -11.679688 C 4.382812 -11.890625 4.273438 -12 4.0625 -12 L 1.507812 -12 C 1.296875 -12 1.1875 -11.890625 1.1875 -11.679688 L 1.1875 -0.320312 C 1.1875 -0.109375 1.296875 0 1.507812 0 Z M 4.0625 0 "/></g></g></g><g fill="#fffbfa" fill-opacity="1"><g transform="translate(190.459032, 198.118669)"><g><path d="M 4.078125 0 C 4.289062 0 4.398438 -0.109375 4.398438 -0.320312 L 4.398438 -4.09375 L 7.132812 -4.09375 C 9.40625 -4.09375 10.796875 -5.648438 10.796875 -8.140625 C 10.796875 -10.195312 9.875 -12 6.492188 -12 L 1.507812 -12 C 1.296875 -12 1.1875 -11.890625 1.1875 -11.679688 L 1.1875 -0.320312 C 1.1875 -0.109375 1.296875 0 1.507812 0 Z M 4.398438 -9.28125 L 5.9375 -9.28125 C 6.578125 -9.28125 7.601562 -9.28125 7.601562 -8.109375 C 7.601562 -6.8125 6.382812 -6.8125 5.9375 -6.8125 L 4.398438 -6.8125 Z M 4.398438 -9.28125 "/></g></g></g><g fill="#fffbfa" fill-opacity="1"><g transform="translate(214.631469, 198.118669)"><g><path d="M 8.976562 0 C 9.1875 0 9.296875 -0.109375 9.296875 -0.320312 L 9.296875 -2.398438 C 9.296875 -2.609375 9.1875 -2.71875 8.976562 -2.71875 L 4.382812 -2.71875 L 4.382812 -4.125 L 8.351562 -4.125 C 8.5625 -4.125 8.671875 -4.242188 8.671875 -4.445312 L 8.671875 -6.367188 C 8.671875 -6.578125 8.5625 -6.6875 8.351562 -6.6875 L 4.382812 -6.6875 L 4.382812 -9.28125 L 8.976562 -9.28125 C 9.1875 -9.28125 9.296875 -9.390625 9.296875 -9.601562 L 9.296875 -11.679688 C 9.296875 -11.890625 9.1875 -12 8.976562 -12 L 1.507812 -12 C 1.296875 -12 1.1875 -11.890625 1.1875 -11.679688 L 1.1875 -0.320312 C 1.1875 -0.109375 1.296875 0 1.507812 0 Z M 8.976562 0 "/></g></g></g></svg>