<svg xmlns="http://www.w3.org/2000/svg" xmlns:xlink="http://www.w3.org/1999/xlink" width="500" zoomAndPan="magnify" viewBox="0 0 375 374.999991" height="500" preserveAspectRatio="xMidYMid meet" version="1.0"><defs><clipPath id="a9072f196f"><path d="M 155 115.878906 L 207.996094 115.878906 L 207.996094 173 L 155 173 Z M 155 115.878906 " clip-rule="nonzero"/></clipPath><clipPath id="e0cf0e8b4c"><path d="M 159.601562 145.53125 L 207.996094 145.53125 L 207.996094 227.984375 L 159.601562 227.984375 Z M 159.601562 145.53125 " clip-rule="nonzero"/></clipPath></defs><g clip-path="url(#a9072f196f)"><path fill="#ffffff" d="M 203.515625 115.90625 C 204.3125 116.941406 204.050781 119.199219 203.804688 120.367188 C 203.488281 121.835938 203.011719 122.949219 202.042969 124.09375 C 200.042969 126.445312 197.46875 128.242188 194.773438 129.707031 C 190.234375 132.171875 185.386719 133.957031 180.667969 135.996094 C 174.964844 138.460938 168.671875 140.742188 163.710938 144.507812 C 159.4375 147.609375 156.460938 151.515625 155.589844 156.820312 C 154.742188 161.980469 155.863281 167.253906 157.1875 172.234375 C 156.480469 166.371094 160.265625 160.761719 165.011719 157.246094 C 169.957031 153.585938 175.914062 151.605469 181.761719 149.707031 C 187.613281 147.808594 193.578125 145.882812 198.582031 142.300781 C 203.582031 138.722656 207.558594 133.144531 207.621094 126.992188 C 207.664062 122.9375 206.019531 119.148438 203.515625 115.90625 " fill-opacity="1" fill-rule="nonzero"/></g><g clip-path="url(#e0cf0e8b4c)"><path fill="#ffffff" d="M 208.019531 145.570312 C 206.066406 152.71875 197.125 154.878906 190.96875 157.171875 C 184.8125 159.460938 177.9375 160.511719 172.15625 163.628906 C 166.375 166.746094 162.140625 170.992188 160.316406 177.304688 C 157.894531 185.664062 161.972656 194.59375 167.4375 201.367188 C 172.898438 208.144531 179.820312 213.722656 184.632812 220.972656 C 186.097656 223.183594 187.339844 225.535156 188.355469 227.984375 C 188.855469 223.234375 187.238281 218.214844 184.832031 213.972656 C 181.703125 208.464844 177.339844 203.738281 174.152344 198.261719 C 170.96875 192.785156 169.019531 186.03125 171.289062 180.117188 C 173.441406 174.515625 178.875 170.878906 184.351562 168.429688 C 189.828125 165.980469 195.933594 163.601562 200.832031 160.136719 C 205.726562 156.671875 209.328125 151.421875 208.019531 145.570312 " fill-opacity="1" fill-rule="nonzero"/></g></svg>