<svg xmlns="http://www.w3.org/2000/svg" xmlns:xlink="http://www.w3.org/1999/xlink" width="500" zoomAndPan="magnify" viewBox="0 0 375 374.999991" height="500" preserveAspectRatio="xMidYMid meet" version="1.0"><defs><clipPath id="83d6295958"><path d="M 19 40.78125 L 117 40.78125 L 117 176 L 19 176 Z M 19 40.78125 " clip-rule="nonzero"/></clipPath><clipPath id="12db8a0120"><path d="M 41 332 L 44 332 L 44 334.03125 L 41 334.03125 Z M 41 332 " clip-rule="nonzero"/></clipPath></defs><g clip-path="url(#83d6295958)"><path fill="#10d7e2" d="M 116.371094 175.894531 L 116.164062 175.695312 C 113.226562 173.101562 110.402344 170.390625 107.667969 167.773438 C 105.144531 165.355469 102.535156 162.855469 99.800781 160.402344 C 98.390625 159.230469 97.15625 158.023438 95.964844 156.859375 C 95.246094 156.15625 94.496094 155.425781 93.710938 154.699219 C 91.84375 153.097656 90.085938 151.417969 88.390625 149.796875 C 87.542969 148.984375 86.664062 148.144531 85.785156 147.324219 C 85.019531 146.582031 84.289062 145.960938 83.257812 145.183594 C 78.214844 140.445312 73.183594 135.777344 68.324219 131.261719 C 63.460938 126.75 58.433594 122.082031 53.394531 117.347656 C 44.207031 108.597656 34.957031 99.996094 26.011719 91.675781 C 23.730469 89.554688 21.449219 87.433594 19.164062 85.304688 L 19.21875 85.242188 C 21.507812 87.371094 23.789062 89.492188 26.066406 91.613281 C 35.015625 99.933594 44.265625 108.535156 53.453125 117.285156 C 58.492188 122.019531 63.515625 126.6875 68.378906 131.203125 C 73.242188 135.714844 78.273438 140.382812 83.3125 145.121094 C 84.339844 145.898438 85.074219 146.515625 85.84375 147.265625 C 86.722656 148.082031 87.601562 148.921875 88.449219 149.734375 C 90.144531 151.359375 91.898438 153.035156 93.765625 154.640625 C 94.554688 155.367188 95.300781 156.097656 96.023438 156.800781 C 97.214844 157.964844 98.445312 159.167969 99.855469 160.339844 C 102.589844 162.796875 105.203125 165.296875 107.726562 167.714844 C 110.398438 170.273438 113.15625 172.917969 116.019531 175.460938 C 110.34375 165.796875 104.617188 155.964844 99.078125 146.457031 C 89.253906 129.59375 79.097656 112.160156 68.945312 95.15625 C 67.941406 92.890625 66.699219 90.949219 65.382812 88.894531 C 64.488281 87.496094 63.5625 86.054688 62.726562 84.507812 C 60.144531 79.804688 57.582031 75.476562 54.867188 70.890625 C 54.488281 70.253906 54.109375 69.609375 53.726562 68.964844 L 53.722656 68.949219 C 51.96875 62.097656 50.035156 55.246094 48.167969 48.621094 C 47.449219 46.066406 46.707031 43.421875 45.976562 40.800781 L 46.054688 40.78125 C 46.785156 43.402344 47.527344 46.042969 48.25 48.597656 C 50.117188 55.222656 52.046875 62.074219 53.800781 68.925781 C 54.179688 69.566406 54.5625 70.207031 54.941406 70.847656 C 57.65625 75.433594 60.21875 79.761719 62.800781 84.46875 C 63.636719 86.011719 64.558594 87.453125 65.453125 88.847656 C 66.773438 90.90625 68.019531 92.847656 69.023438 95.113281 C 79.171875 112.113281 89.328125 129.550781 99.148438 146.410156 C 104.734375 155.996094 110.503906 165.90625 116.222656 175.644531 L 116.367188 175.890625 Z M 116.371094 175.894531 " fill-opacity="1" fill-rule="nonzero"/></g><path fill="#10d7e2" d="M 116.957031 327.882812 L 116.996094 327.621094 C 120.8125 304.554688 124.617188 281.28125 128.296875 258.773438 L 128.335938 258.535156 L 128.347656 258.527344 C 131.039062 256.296875 133.78125 254.335938 136.683594 252.257812 C 139.214844 250.445312 141.839844 248.570312 144.421875 246.5 C 144.480469 246.433594 144.628906 246.394531 144.785156 246.351562 C 144.917969 246.316406 145.066406 246.277344 145.113281 246.222656 C 146.894531 244.964844 148.585938 243.675781 150.222656 242.433594 C 152.472656 240.71875 154.800781 238.949219 157.332031 237.277344 C 160.898438 234.773438 164.105469 232.320312 167.503906 229.722656 C 167.808594 229.488281 168.117188 229.253906 168.425781 229.015625 C 169.613281 226.769531 170.804688 224.519531 172.003906 222.277344 C 162.035156 214.011719 152.054688 205.5 142.402344 197.269531 C 133.507812 189.679688 124.3125 181.835938 115.132812 174.191406 C 115.132812 174.191406 115.128906 174.1875 115.128906 174.1875 L 115.066406 174.136719 L 115.144531 174.113281 C 116.472656 173.664062 117.820312 173.316406 119.246094 172.945312 C 120.277344 172.679688 121.34375 172.402344 122.394531 172.082031 C 129.515625 170.109375 134.871094 168.667969 141.152344 167.160156 C 141.320312 167.089844 141.429688 167.027344 141.546875 166.960938 C 141.660156 166.894531 141.777344 166.824219 141.957031 166.753906 C 142.289062 166.679688 142.609375 166.609375 142.917969 166.542969 C 143.984375 166.320312 144.988281 166.109375 146.058594 165.675781 L 148.535156 165.171875 C 148.699219 165.105469 148.8125 165.039062 148.925781 164.972656 C 149.042969 164.90625 149.160156 164.839844 149.335938 164.769531 L 151.816406 164.261719 C 152.800781 163.867188 153.714844 163.570312 154.964844 163.242188 C 156.90625 162.828125 158.722656 162.328125 160.476562 161.84375 C 162.234375 161.359375 164.050781 160.855469 165.992188 160.445312 C 167.335938 160.066406 168.585938 159.691406 169.792969 159.328125 C 171 158.960938 172.25 158.585938 173.597656 158.207031 C 174.714844 157.960938 175.757812 157.6875 176.765625 157.421875 C 177.773438 157.15625 178.816406 156.882812 179.933594 156.640625 C 186.609375 154.816406 192.984375 153.105469 199.148438 151.449219 C 205.3125 149.796875 211.6875 148.085938 218.363281 146.261719 C 220.351562 145.664062 222.257812 145.128906 224.097656 144.609375 C 224.480469 144.503906 224.867188 144.394531 225.253906 144.285156 C 229.800781 142.085938 234.386719 139.964844 238.855469 137.898438 C 240.839844 136.980469 242.894531 136.03125 244.898438 135.09375 L 244.933594 135.171875 C 242.929688 136.105469 240.875 137.054688 238.890625 137.972656 C 234.5625 139.976562 230.125 142.027344 225.71875 144.152344 C 227.054688 143.773438 228.421875 143.378906 229.832031 142.957031 C 234.871094 141.585938 239.609375 140.308594 244.1875 139.070312 C 248.765625 137.828125 253.5 136.550781 258.539062 135.179688 C 260.992188 134.554688 263.335938 133.914062 265.601562 133.289062 C 269.097656 132.332031 272.402344 131.425781 276.125 130.5625 C 276.207031 130.527344 276.304688 130.5 276.402344 130.472656 C 276.683594 130.390625 276.949219 130.308594 277.015625 130.0625 C 277.234375 128.90625 277.59375 127.851562 277.9375 126.832031 C 278.171875 126.152344 278.410156 125.453125 278.605469 124.730469 C 280.207031 120.183594 281.863281 115.488281 283.371094 110.753906 L 283.378906 110.738281 C 294.328125 98.65625 305.714844 86.601562 316.730469 74.941406 C 322.203125 69.25 327.933594 63.6875 333.46875 58.308594 C 336.785156 55.089844 340.210938 51.757812 343.558594 48.429688 L 343.617188 48.488281 C 340.269531 51.820312 336.84375 55.148438 333.527344 58.371094 C 327.992188 63.75 322.265625 69.3125 316.792969 75 C 305.78125 86.65625 294.394531 98.710938 283.449219 110.789062 C 281.941406 115.523438 280.285156 120.214844 278.683594 124.753906 C 278.488281 125.476562 278.25 126.179688 278.019531 126.859375 C 277.671875 127.875 277.316406 128.925781 277.097656 130.082031 C 277.019531 130.378906 276.71875 130.464844 276.425781 130.550781 C 276.332031 130.578125 276.238281 130.609375 276.152344 130.640625 C 272.421875 131.503906 269.121094 132.410156 265.625 133.371094 C 263.359375 133.992188 261.015625 134.636719 258.5625 135.261719 C 253.527344 136.632812 248.789062 137.910156 244.210938 139.148438 C 239.632812 140.386719 234.898438 141.667969 229.859375 143.039062 C 228.285156 143.507812 226.765625 143.941406 225.285156 144.359375 C 223.710938 145.121094 222.140625 145.890625 220.582031 146.671875 C 220.609375 151.472656 220.847656 156.28125 221.078125 160.933594 C 221.269531 164.824219 221.46875 168.851562 221.546875 172.898438 C 221.875 178.378906 222.066406 183.488281 222.273438 188.894531 L 222.300781 189.539062 L 222.285156 189.554688 C 220.191406 191.523438 217.902344 193.117188 215.484375 194.804688 C 214.800781 195.285156 214.09375 195.777344 213.394531 196.277344 C 213.011719 196.539062 212.640625 196.816406 212.277344 197.082031 C 211.554688 197.621094 210.804688 198.175781 209.957031 198.625 C 207.164062 200.574219 204.65625 202.515625 202 204.570312 C 201.289062 205.117188 200.566406 205.679688 199.820312 206.25 C 199.761719 206.316406 199.613281 206.355469 199.457031 206.398438 C 199.328125 206.433594 199.175781 206.472656 199.128906 206.527344 C 197.183594 207.957031 195.300781 209.371094 193.480469 210.734375 C 191.660156 212.101562 189.777344 213.515625 187.835938 214.941406 C 185.207031 216.765625 182.714844 218.605469 180.304688 220.386719 C 177.894531 222.171875 175.402344 224.011719 172.769531 225.835938 C 171.304688 226.933594 169.882812 228.015625 168.496094 229.074219 C 165.394531 234.953125 162.339844 240.8125 159.359375 246.535156 C 155.707031 253.539062 151.933594 260.78125 148.035156 268.128906 C 143.382812 277.003906 138.84375 285.792969 134.457031 294.292969 C 128.558594 305.714844 122.988281 316.503906 117.082031 327.648438 L 116.960938 327.882812 Z M 117.128906 327.34375 L 117.132812 327.347656 C 117.132812 327.347656 117.136719 327.355469 117.140625 327.355469 C 122.996094 316.304688 128.527344 305.589844 134.378906 294.257812 C 138.765625 285.757812 143.304688 276.964844 147.957031 268.089844 C 151.855469 260.742188 155.628906 253.5 159.28125 246.496094 C 162.234375 240.828125 165.261719 235.019531 168.335938 229.195312 C 168.074219 229.398438 167.8125 229.59375 167.554688 229.792969 C 164.15625 232.390625 160.949219 234.84375 157.378906 237.347656 C 154.855469 239.019531 152.527344 240.789062 150.277344 242.5 C 148.636719 243.746094 146.949219 245.035156 145.171875 246.289062 C 145.117188 246.351562 144.96875 246.390625 144.808594 246.433594 C 144.679688 246.46875 144.527344 246.507812 144.480469 246.558594 C 141.890625 248.636719 139.269531 250.511719 136.734375 252.328125 C 133.835938 254.402344 131.101562 256.359375 128.417969 258.582031 L 128.382812 258.789062 C 124.71875 281.199219 120.929688 304.371094 117.132812 327.34375 Z M 115.332031 174.25 C 124.464844 181.855469 133.613281 189.660156 142.457031 197.207031 C 152.117188 205.449219 162.105469 213.96875 172.082031 222.242188 L 172.109375 222.261719 L 172.09375 222.292969 C 170.917969 224.492188 169.75 226.695312 168.585938 228.898438 C 169.925781 227.875 171.304688 226.828125 172.714844 225.769531 C 175.347656 223.945312 177.839844 222.101562 180.25 220.320312 C 182.660156 218.539062 185.15625 216.695312 187.785156 214.875 C 189.722656 213.449219 191.609375 212.035156 193.429688 210.671875 C 195.25 209.304688 197.132812 207.890625 199.070312 206.464844 C 199.128906 206.398438 199.277344 206.359375 199.433594 206.320312 C 199.566406 206.285156 199.714844 206.246094 199.761719 206.191406 C 200.511719 205.613281 201.234375 205.054688 201.949219 204.503906 C 204.605469 202.453125 207.117188 200.511719 209.914062 198.558594 C 210.757812 198.109375 211.503906 197.554688 212.226562 197.019531 C 212.589844 196.75 212.960938 196.472656 213.34375 196.210938 C 214.042969 195.710938 214.75 195.21875 215.433594 194.742188 C 217.84375 193.058594 220.121094 191.46875 222.210938 189.511719 L 222.1875 188.902344 C 221.984375 183.496094 221.789062 178.386719 221.460938 172.90625 C 221.382812 168.859375 221.183594 164.832031 220.992188 160.941406 C 220.761719 156.28125 220.523438 151.460938 220.496094 146.648438 L 220.496094 146.625 L 220.519531 146.613281 C 221.949219 145.898438 223.382812 145.191406 224.820312 144.496094 C 224.585938 144.5625 224.355469 144.625 224.121094 144.691406 C 222.28125 145.210938 220.375 145.746094 218.386719 146.34375 C 211.707031 148.167969 205.335938 149.878906 199.171875 151.53125 C 193.007812 153.1875 186.632812 154.898438 179.957031 156.722656 C 178.835938 156.96875 177.796875 157.242188 176.789062 157.507812 C 175.777344 157.773438 174.734375 158.046875 173.617188 158.289062 C 172.273438 158.664062 171.023438 159.042969 169.816406 159.40625 C 168.609375 159.773438 167.363281 160.148438 166.015625 160.527344 C 164.074219 160.941406 162.253906 161.441406 160.5 161.925781 C 158.742188 162.410156 156.925781 162.914062 154.984375 163.328125 C 153.738281 163.652344 152.828125 163.949219 151.839844 164.34375 L 149.363281 164.851562 C 149.195312 164.917969 149.085938 164.980469 148.96875 165.050781 C 148.855469 165.113281 148.734375 165.183594 148.558594 165.253906 L 146.082031 165.761719 C 145.011719 166.191406 144.003906 166.402344 142.9375 166.628906 C 142.625 166.695312 142.304688 166.761719 141.980469 166.835938 C 141.816406 166.90625 141.707031 166.96875 141.589844 167.035156 C 141.472656 167.101562 141.355469 167.171875 141.179688 167.242188 C 134.890625 168.753906 129.539062 170.191406 122.417969 172.167969 C 121.367188 172.484375 120.296875 172.761719 119.265625 173.027344 C 117.90625 173.382812 116.617188 173.71875 115.34375 174.136719 C 115.351562 174.144531 115.355469 174.152344 115.359375 174.160156 C 115.375 174.191406 115.367188 174.222656 115.34375 174.246094 C 115.339844 174.246094 115.335938 174.25 115.332031 174.253906 Z M 115.332031 174.25 " fill-opacity="1" fill-rule="nonzero"/><path fill="#10d7e2" d="M 170.402344 223.472656 L 170.355469 223.402344 L 188.398438 211.648438 L 172 222.285156 L 171.953125 222.214844 L 222.273438 189.582031 L 222.320312 189.648438 Z M 170.402344 223.472656 " fill-opacity="1" fill-rule="nonzero"/><path fill="#10d7e2" d="M 128.464844 258.394531 L 128.382812 258.386719 L 135.898438 191.679688 L 135.949219 191.703125 L 178.585938 209.339844 L 222.628906 189.417969 L 222.320312 189.648438 L 135.359375 254.777344 L 135.3125 254.707031 L 221.964844 189.8125 L 178.585938 209.429688 L 178.570312 209.425781 L 135.96875 191.800781 Z M 128.464844 258.394531 " fill-opacity="1" fill-rule="nonzero"/><path fill="#10d7e2" d="M 222.273438 189.648438 L 197.828125 172.609375 L 197.875 172.539062 L 222.320312 189.582031 Z M 222.273438 189.648438 " fill-opacity="1" fill-rule="nonzero"/><path fill="#10d7e2" d="M 312.898438 117.394531 L 283.449219 110.664062 L 283.441406 110.644531 L 259.148438 52.992188 L 259.230469 52.960938 L 283.511719 110.59375 L 312.917969 117.3125 Z M 312.898438 117.394531 " fill-opacity="1" fill-rule="nonzero"/><path fill="#10d7e2" d="M 68.992188 154.871094 L 65.175781 128.167969 L 53.761719 68.996094 L 53.84375 68.980469 L 65.257812 128.15625 L 69.074219 154.859375 Z M 68.992188 154.871094 " fill-opacity="1" fill-rule="nonzero"/><path fill="#10d7e2" d="M 141.804688 164.570312 L 78.894531 140.808594 L 78.886719 140.789062 C 78.644531 140.105469 54.460938 72.253906 53.683594 71.617188 L 53.714844 71.539062 C 53.816406 71.570312 54.132812 71.660156 66.589844 106.234375 C 72.65625 123.0625 78.722656 140.085938 78.957031 140.742188 L 141.832031 164.488281 Z M 141.804688 164.570312 " fill-opacity="1" fill-rule="nonzero"/><path fill="#10d7e2" d="M 97.679688 141.707031 L 97.640625 141.703125 L 78.925781 140.816406 L 37.253906 137.261719 L 37.308594 137.199219 L 51.777344 120.3125 L 53.765625 68.894531 L 53.832031 68.957031 L 97.582031 109.34375 L 97.527344 109.402344 L 53.84375 69.082031 L 51.859375 120.34375 L 51.847656 120.355469 L 37.421875 137.191406 L 78.929688 140.734375 L 97.601562 141.617188 L 99.882812 108.625 L 99.964844 108.632812 Z M 97.679688 141.707031 " fill-opacity="1" fill-rule="nonzero"/><path fill="#10d7e2" d="M 154.71875 237.097656 L 135.902344 191.777344 L 114.886719 185.332031 L 114.910156 185.25 L 135.964844 191.707031 L 135.972656 191.726562 L 154.796875 237.066406 Z M 154.71875 237.097656 " fill-opacity="1" fill-rule="nonzero"/><path fill="#10d7e2" d="M 116.902344 327.53125 L 116.78125 327.414062 L 222.183594 190.117188 L 222.320312 190.21875 L 117.421875 326.855469 L 257.648438 204.855469 L 309.835938 137.476562 L 283.667969 110.621094 L 239.179688 74.789062 L 239.285156 74.660156 L 283.78125 110.5 L 310.058594 137.464844 L 310.011719 137.519531 L 257.769531 204.972656 Z M 116.902344 327.53125 " fill-opacity="1" fill-rule="nonzero"/><path fill="#10d7e2" d="M 245.070312 135.195312 L 245.296875 135.011719 L 328.796875 68.046875 L 328.289062 68.664062 L 276.992188 131.441406 L 276.957031 131.445312 L 245.066406 135.195312 Z M 327.65625 69.175781 L 245.632812 134.960938 L 276.90625 131.285156 Z M 327.65625 69.175781 " fill-opacity="1" fill-rule="nonzero"/><path fill="#10d7e2" d="M 37.953125 137.492188 L 37.808594 137.101562 L 37.289062 137.339844 L 37.257812 137.253906 L 18.71875 85.714844 L 18.875 85.65625 L 37.902344 136.871094 L 99.875 108.300781 L 54.375 68.871094 L 55.269531 123.863281 L 55.101562 123.863281 L 54.203125 68.496094 L 100.179688 108.34375 L 37.960938 137.03125 L 38.109375 137.429688 Z M 24.363281 100.910156 L 37.386719 137.109375 L 37.75 136.941406 Z M 24.363281 100.910156 " fill-opacity="1" fill-rule="nonzero"/><path fill="#10d7e2" d="M 142.074219 165.261719 L 141.609375 164.910156 L 86.421875 122.992188 L 86.414062 122.976562 L 54.257812 68.792969 L 18.832031 85.761719 L 18.761719 85.609375 L 54.320312 68.574219 L 54.359375 68.640625 L 86.550781 122.875 L 141.246094 164.425781 L 99.859375 108.234375 L 133.34375 108.832031 L 133.339844 109 L 100.195312 108.410156 Z M 142.074219 165.261719 " fill-opacity="1" fill-rule="nonzero"/><path fill="#10d7e2" d="M 257.855469 205.292969 L 232.675781 168.257812 L 232.691406 168.21875 L 245.265625 135.070312 L 245.25 134.992188 L 245.355469 134.996094 L 309.882812 137.382812 L 328.148438 68.589844 L 328.308594 68.632812 L 310.011719 137.558594 L 309.945312 137.558594 L 245.453125 135.167969 L 257.855469 205.296875 Z M 232.863281 168.238281 L 257.554688 204.550781 L 245.324219 135.394531 L 232.867188 168.238281 Z M 232.863281 168.238281 " fill-opacity="1" fill-rule="nonzero"/><path fill="#10d7e2" d="M 257.757812 205.03125 L 222.238281 190.253906 L 62.894531 193.828125 L 62.890625 193.65625 L 222.269531 190.085938 L 222.285156 190.089844 L 257.648438 204.804688 L 283.648438 110.542969 L 283.808594 110.585938 Z M 257.757812 205.03125 " fill-opacity="1" fill-rule="nonzero"/><path fill="#10d7e2" d="M 100.773438 274.570312 L 100.679688 274.429688 L 157.5 235 L 233.023438 167.90625 L 222.316406 190.226562 L 222.300781 190.238281 L 157.605469 235.132812 L 113.527344 274.289062 L 113.414062 274.164062 L 156.445312 235.933594 Z M 232.511719 168.589844 L 158.65625 234.195312 L 222.1875 190.113281 L 232.511719 168.585938 Z M 232.511719 168.589844 " fill-opacity="1" fill-rule="nonzero"/><path fill="#10d7e2" d="M 54.804688 230.53125 L 54.945312 230.441406 L 116.933594 327.40625 L 116.792969 327.496094 Z M 54.804688 230.53125 " fill-opacity="1" fill-rule="nonzero"/><path fill="#10d7e2" d="M 114.371094 174.808594 L 277.296875 131.183594 L 277.003906 131.425781 L 232.800781 168.328125 L 232.773438 168.328125 Z M 276.601562 131.542969 L 115.980469 174.550781 L 232.738281 168.167969 L 276.605469 131.542969 Z M 276.601562 131.542969 " fill-opacity="1" fill-rule="nonzero"/><path fill="#10d7e2" d="M 115.082031 174.703125 L 115.246094 174.675781 L 128.792969 259.25 L 128.628906 259.277344 Z M 115.082031 174.703125 " fill-opacity="1" fill-rule="nonzero"/><path fill="#10d7e2" d="M 309.933594 137.550781 C 308.320312 137.289062 306.765625 136.984375 305.125 136.660156 C 302.734375 136.191406 300.257812 135.707031 297.597656 135.363281 C 297.285156 135.320312 297.03125 135.214844 296.785156 135.105469 C 296.539062 135 296.304688 134.902344 296.019531 134.863281 C 288.726562 133.589844 282.867188 132.539062 277.042969 131.464844 C 277.007812 131.457031 276.972656 131.449219 276.933594 131.441406 L 276.738281 131.40625 L 276.898438 131.292969 C 290.289062 121.683594 303.941406 111.957031 317.140625 102.546875 C 333.5 90.882812 350.421875 78.824219 367 66.882812 L 367.097656 67.019531 C 350.519531 78.960938 333.601562 91.019531 317.238281 102.683594 C 304.09375 112.050781 290.503906 121.738281 277.171875 131.304688 C 277.257812 131.320312 277.34375 131.34375 277.40625 131.359375 C 277.433594 131.363281 277.441406 131.363281 277.445312 131.363281 L 277.445312 131.367188 C 283.148438 132.421875 288.914062 133.453125 296.046875 134.695312 C 296.351562 134.738281 296.605469 134.847656 296.851562 134.953125 C 297.097656 135.058594 297.332031 135.15625 297.617188 135.199219 C 300.285156 135.539062 302.761719 136.027344 305.15625 136.496094 C 306.796875 136.820312 308.347656 137.125 309.960938 137.386719 Z M 309.933594 137.550781 " fill-opacity="1" fill-rule="nonzero"/><path fill="#10d7e2" d="M 54.523438 68.851562 L 54.265625 68.765625 C 54.164062 68.738281 54.09375 68.722656 54.039062 68.707031 C 53.996094 68.695312 53.964844 68.6875 53.957031 68.6875 L 53.957031 68.679688 C 53.917969 68.664062 53.902344 68.652344 53.894531 68.636719 C 52.167969 68.070312 50.46875 67.671875 48.675781 67.25 C 47.792969 67.039062 46.878906 66.828125 45.945312 66.585938 C 40.917969 65.320312 36.117188 64.136719 31.472656 62.996094 C 26.964844 61.886719 22.707031 60.835938 18.257812 59.71875 L 18.207031 59.703125 L 18.195312 59.652344 C 17.929688 58.355469 17.832031 56.980469 17.734375 55.648438 C 17.648438 54.429688 17.558594 53.164062 17.335938 51.988281 L 17.5 51.957031 C 17.726562 53.144531 17.816406 54.410156 17.902344 55.636719 C 17.996094 56.945312 18.09375 58.292969 18.351562 59.566406 C 22.785156 60.679688 27.027344 61.726562 31.515625 62.828125 C 36.160156 63.972656 40.960938 65.15625 45.992188 66.421875 C 46.921875 66.660156 47.835938 66.875 48.71875 67.082031 C 50.554688 67.515625 52.296875 67.925781 54.074219 68.515625 C 53.246094 67.359375 52.3125 66.152344 51.410156 64.984375 C 51.242188 64.769531 51.101562 64.496094 50.964844 64.234375 C 50.832031 63.980469 50.695312 63.714844 50.539062 63.511719 C 49.519531 62.398438 48.632812 61.15625 47.777344 59.949219 C 47.183594 59.121094 46.574219 58.261719 45.929688 57.46875 C 44.429688 55.363281 42.941406 53.308594 41.5 51.324219 C 39.921875 49.144531 38.285156 46.894531 36.679688 44.632812 L 36.816406 44.535156 C 38.421875 46.796875 40.054688 49.046875 41.636719 51.226562 C 43.078125 53.210938 44.566406 55.265625 46.0625 57.363281 C 46.707031 58.160156 47.320312 59.019531 47.910156 59.851562 C 48.765625 61.050781 49.648438 62.289062 50.664062 63.398438 C 50.835938 63.621094 50.976562 63.890625 51.113281 64.15625 C 51.246094 64.410156 51.382812 64.675781 51.542969 64.878906 C 52.503906 66.121094 53.492188 67.402344 54.359375 68.628906 L 54.523438 68.847656 Z M 54.523438 68.851562 " fill-opacity="1" fill-rule="nonzero"/><path fill="#10d7e2" d="M 349.429688 64.140625 L 349.523438 63.9375 C 350.222656 62.25 351.003906 60.625 351.757812 59.050781 C 352.207031 58.117188 352.667969 57.148438 353.113281 56.175781 L 353.265625 56.246094 C 352.820312 57.222656 352.359375 58.1875 351.910156 59.121094 C 351.199219 60.59375 350.472656 62.113281 349.808594 63.683594 L 349.816406 63.683594 L 349.828125 63.761719 C 349.828125 63.761719 349.828125 63.773438 349.828125 63.78125 C 351.375 63.117188 352.980469 62.609375 354.535156 62.121094 C 356.015625 61.652344 357.550781 61.171875 358.992188 60.5625 L 359.058594 60.714844 C 357.605469 61.332031 356.070312 61.8125 354.585938 62.28125 C 352.953125 62.792969 351.265625 63.324219 349.65625 64.039062 C 349.648438 64.042969 349.640625 64.046875 349.628906 64.050781 Z M 349.429688 64.140625 " fill-opacity="1" fill-rule="nonzero"/><path fill="#10d7e2" d="M 55.125 123.921875 C 52.679688 121.382812 50.214844 118.796875 47.835938 116.292969 C 43.933594 112.195312 39.898438 107.957031 35.777344 103.765625 C 32.941406 100.75 30.089844 97.765625 27.328125 94.882812 C 24.566406 91.996094 21.710938 89.011719 18.875 85.996094 L 18.855469 85.964844 L 18.683594 85.472656 L 18.6875 85.449219 C 20.402344 75.230469 22.285156 64.113281 24.460938 52.085938 C 24.5 51.199219 24.691406 50.257812 24.878906 49.34375 L 24.886719 49.300781 L 25.050781 49.332031 L 25.042969 49.378906 C 24.859375 50.285156 24.667969 51.222656 24.628906 52.105469 C 22.453125 64.132812 20.570312 75.242188 18.855469 85.457031 L 19.007812 85.894531 C 21.835938 88.90625 24.691406 91.882812 27.445312 94.765625 C 30.207031 97.652344 33.0625 100.636719 35.898438 103.648438 C 40.015625 107.839844 44.050781 112.078125 47.957031 116.175781 C 50.335938 118.679688 52.800781 121.265625 55.246094 123.804688 L 55.125 123.917969 Z M 55.125 123.921875 " fill-opacity="1" fill-rule="nonzero"/><path fill="#10d7e2" d="M 86.421875 122.886719 L 132.304688 52.445312 L 132.449219 52.539062 L 86.5625 122.980469 Z M 86.421875 122.886719 " fill-opacity="1" fill-rule="nonzero"/><path fill="#10d7e2" d="M 221.820312 257.128906 L 137.460938 159.238281 L 55.152344 123.9375 L 55.21875 123.785156 L 137.5625 159.097656 L 137.578125 159.113281 L 221.949219 257.015625 Z M 221.820312 257.128906 " fill-opacity="1" fill-rule="nonzero"/><path fill="#10d7e2" d="M 54.21875 68.730469 L 54.363281 68.644531 L 116.257812 175.632812 L 116.113281 175.714844 Z M 54.21875 68.730469 " fill-opacity="1" fill-rule="nonzero"/><path fill="#10d7e2" d="M 115.492188 261.992188 L 115.332031 261.941406 L 136.324219 192.035156 L 136.386719 192.039062 L 191.71875 194.320312 L 209.007812 189.253906 L 209.054688 189.414062 L 191.738281 194.488281 L 191.722656 194.488281 L 136.445312 192.210938 Z M 115.492188 261.992188 " fill-opacity="1" fill-rule="nonzero"/><path fill="#10d7e2" d="M 184.425781 225.550781 L 179.449219 208.933594 L 179.476562 208.902344 L 191.660156 194.351562 L 191.789062 194.457031 L 179.636719 208.972656 L 184.585938 225.503906 Z M 184.425781 225.550781 " fill-opacity="1" fill-rule="nonzero"/><path fill="#10d7e2" d="M 232.800781 168.328125 L 232.738281 168.171875 L 309.886719 137.402344 L 349.527344 63.933594 L 349.671875 64.015625 L 310.003906 137.535156 L 309.976562 137.546875 Z M 232.800781 168.328125 " fill-opacity="1" fill-rule="nonzero"/><path fill="#10d7e2" d="M 37.257812 137.246094 C 34.507812 126.222656 31.773438 115.03125 29.125 104.210938 C 25.628906 89.910156 22.011719 75.121094 18.316406 60.507812 C 17.789062 58.144531 16.976562 56.042969 16.113281 53.816406 C 15.953125 53.40625 15.796875 52.992188 15.636719 52.574219 L 15.792969 52.515625 C 15.953125 52.929688 16.109375 53.34375 16.269531 53.753906 C 17.132812 55.988281 17.949219 58.09375 18.476562 60.46875 C 22.171875 75.082031 25.789062 89.871094 29.285156 104.171875 C 31.933594 114.996094 34.667969 126.183594 37.417969 137.207031 L 37.253906 137.246094 Z M 37.257812 137.246094 " fill-opacity="1" fill-rule="nonzero"/><path fill="#10d7e2" d="M 309.9375 137.609375 L 309.875 137.515625 C 308.632812 135.765625 307.507812 133.976562 306.3125 132.085938 C 305.460938 130.734375 304.582031 129.34375 303.644531 127.941406 C 302.785156 126.5 301.882812 125.070312 301.011719 123.6875 C 300.136719 122.304688 299.234375 120.875 298.375 119.441406 C 297.644531 118.445312 296.996094 117.394531 296.363281 116.378906 C 295.777344 115.429688 295.171875 114.449219 294.507812 113.53125 L 294.644531 113.433594 C 295.3125 114.355469 295.917969 115.335938 296.507812 116.289062 C 297.132812 117.300781 297.78125 118.351562 298.515625 119.347656 C 299.378906 120.789062 300.28125 122.21875 301.152344 123.597656 C 302.023438 124.984375 302.925781 126.414062 303.785156 127.851562 C 304.722656 129.25 305.601562 130.644531 306.453125 131.996094 C 307.625 133.851562 308.734375 135.609375 309.953125 137.332031 C 321.15625 124.347656 332.582031 111.234375 343.628906 98.558594 C 352.050781 88.890625 360.761719 78.890625 369.332031 69.003906 L 369.457031 69.113281 C 360.890625 79.003906 352.179688 89 343.753906 98.667969 C 332.6875 111.367188 321.246094 124.5 310.023438 137.507812 C 310.015625 137.511719 310.015625 137.515625 310.007812 137.523438 L 309.933594 137.609375 Z M 309.9375 137.609375 " fill-opacity="1" fill-rule="nonzero"/><path fill="#10d7e2" d="M 310.023438 137.507812 L 309.871094 137.429688 C 310.636719 135.90625 311.527344 134.464844 312.464844 132.941406 C 313.132812 131.859375 313.824219 130.738281 314.460938 129.589844 C 316.542969 125.609375 318.636719 121.941406 320.855469 118.058594 C 321.371094 117.15625 321.894531 116.238281 322.425781 115.308594 C 325.460938 110.199219 328.296875 105.183594 331.039062 100.339844 C 334.15625 94.824219 337.101562 89.613281 340.34375 84.238281 L 340.359375 84.210938 L 340.390625 84.203125 C 347.660156 82.109375 355.066406 79.878906 362.226562 77.722656 C 366.386719 76.46875 370.6875 75.175781 374.945312 73.914062 L 374.996094 74.074219 C 370.734375 75.335938 366.4375 76.632812 362.277344 77.882812 C 355.125 80.035156 347.730469 82.265625 340.46875 84.355469 C 337.238281 89.714844 334.296875 94.917969 331.183594 100.421875 C 328.441406 105.269531 325.609375 110.28125 322.570312 115.390625 C 322.039062 116.324219 321.519531 117.238281 321 118.144531 C 318.785156 122.023438 316.6875 125.6875 314.613281 129.671875 C 313.972656 130.824219 313.28125 131.945312 312.609375 133.03125 C 311.671875 134.550781 310.785156 135.988281 310.023438 137.507812 Z M 310.023438 137.507812 " fill-opacity="1" fill-rule="nonzero"/><path fill="#10d7e2" d="M 1.074219 74.710938 L 1.214844 74.378906 C 1.238281 74.265625 1.25 74.21875 1.277344 74.203125 C 1.304688 74.085938 1.3125 73.988281 1.316406 73.863281 C 1.320312 73.773438 1.324219 73.667969 1.339844 73.539062 C 1.421875 73.230469 1.511719 72.972656 1.601562 72.722656 C 1.6875 72.472656 1.777344 72.214844 1.851562 71.925781 C 2.058594 70.320312 2.414062 68.6875 2.757812 67.109375 C 2.972656 66.128906 3.195312 65.113281 3.382812 64.09375 C 3.554688 63.316406 3.773438 62.515625 3.988281 61.742188 C 4.195312 60.96875 4.414062 60.167969 4.589844 59.398438 C 4.726562 58.300781 4.875 57.160156 5.230469 56.191406 L 5.386719 56.25 C 5.039062 57.199219 4.894531 58.332031 4.753906 59.425781 C 4.578125 60.210938 4.359375 61.007812 4.148438 61.785156 C 3.941406 62.558594 3.722656 63.359375 3.546875 64.128906 C 3.363281 65.144531 3.136719 66.160156 2.925781 67.144531 C 2.578125 68.71875 2.222656 70.347656 2.019531 71.957031 C 1.941406 72.265625 1.847656 72.523438 1.761719 72.777344 C 1.675781 73.023438 1.582031 73.28125 1.507812 73.570312 C 1.496094 73.683594 1.492188 73.78125 1.488281 73.871094 C 1.484375 73.964844 1.480469 74.050781 1.464844 74.144531 C 3.738281 72.132812 6.074219 70.132812 8.335938 68.191406 C 11.46875 65.5 14.710938 62.71875 17.808594 59.902344 C 18.066406 59.632812 18.316406 59.375 18.519531 58.960938 C 19.484375 56.136719 20.449219 53.304688 21.40625 50.5 L 21.566406 50.554688 C 20.609375 53.359375 19.640625 56.191406 18.675781 59.019531 C 18.457031 59.472656 18.1875 59.75 17.925781 60.019531 C 14.820312 62.84375 11.582031 65.625 8.445312 68.316406 C 6.109375 70.320312 3.699219 72.390625 1.355469 74.464844 L 1.160156 74.636719 L 1.160156 74.632812 L 1.078125 74.707031 Z M 1.074219 74.710938 " fill-opacity="1" fill-rule="nonzero"/><path fill="#10d7e2" d="M 328.238281 68.691406 L 328.222656 68.613281 L 328.222656 68.609375 L 328.144531 68.582031 L 328.222656 68.609375 L 328.203125 68.527344 L 328.253906 68.515625 L 332.265625 67.628906 C 338.539062 66.242188 344.46875 64.933594 350.835938 63.578125 C 351.136719 63.5 351.417969 63.511719 351.6875 63.527344 C 351.957031 63.539062 352.210938 63.554688 352.492188 63.480469 C 353.808594 63.179688 355.089844 62.984375 356.328125 62.792969 C 357.738281 62.578125 359.195312 62.355469 360.660156 61.980469 L 360.699219 62.144531 C 359.230469 62.519531 357.769531 62.746094 356.355469 62.960938 C 355.117188 63.152344 353.839844 63.347656 352.53125 63.644531 C 352.230469 63.722656 351.949219 63.710938 351.679688 63.695312 C 351.410156 63.683594 351.152344 63.671875 350.875 63.746094 C 344.761719 65.046875 339.058594 66.304688 333.0625 67.628906 C 336.878906 66.90625 340.683594 66.15625 344.394531 65.425781 C 349.816406 64.359375 355.425781 63.25 360.960938 62.253906 L 360.988281 62.417969 C 355.457031 63.417969 349.851562 64.519531 344.429688 65.589844 C 339.15625 66.625 333.707031 67.699219 328.289062 68.683594 Z M 328.238281 68.691406 " fill-opacity="1" fill-rule="nonzero"/><path fill="#10d7e2" d="M 18.886719 85.949219 L 18.730469 85.738281 C 18.648438 85.625 18.539062 85.609375 18.425781 85.589844 C 18.265625 85.566406 18.066406 85.535156 18.046875 85.203125 C 13.820312 82.671875 9.546875 79.882812 5.414062 77.183594 C 4.027344 76.277344 2.640625 75.375 1.25 74.476562 L 1.339844 74.335938 C 2.730469 75.234375 4.117188 76.140625 5.507812 77.046875 C 9.652344 79.75 13.933594 82.546875 18.171875 85.082031 L 18.210938 85.105469 L 18.210938 85.152344 C 18.21875 85.386719 18.292969 85.398438 18.453125 85.425781 C 18.53125 85.4375 18.617188 85.449219 18.703125 85.496094 C 18.691406 85.308594 18.695312 85.070312 18.699219 84.929688 C 18.699219 84.871094 18.695312 84.855469 18.695312 84.855469 L 18.699219 84.855469 C 18.699219 84.832031 18.699219 84.820312 18.703125 84.816406 L 18.714844 84.777344 C 18.726562 80.648438 18.601562 76.449219 18.484375 72.382812 C 18.363281 68.246094 18.234375 63.964844 18.25 59.796875 L 18.253906 59.773438 C 18.683594 58.363281 19.160156 56.910156 19.621094 55.503906 C 20.140625 53.90625 20.679688 52.257812 21.179688 50.601562 L 21.339844 50.652344 C 20.84375 52.308594 20.304688 53.960938 19.78125 55.554688 C 19.324219 56.957031 18.847656 58.40625 18.421875 59.808594 C 18.40625 63.972656 18.53125 68.246094 18.652344 72.378906 C 18.78125 76.746094 18.914062 81.261719 18.882812 85.6875 L 18.886719 85.953125 Z M 18.886719 85.949219 " fill-opacity="1" fill-rule="nonzero"/><path fill="#10d7e2" d="M 310.199219 139.417969 L 310.480469 139.242188 C 310.667969 139.140625 310.816406 139.003906 310.929688 138.828125 C 311.070312 138.675781 311.167969 138.496094 311.214844 138.289062 C 311.28125 138.074219 311.289062 137.863281 311.242188 137.648438 C 311.234375 137.4375 311.171875 137.238281 311.054688 137.058594 L 310.804688 136.734375 C 310.605469 136.535156 310.371094 136.398438 310.097656 136.324219 L 309.675781 136.265625 C 309.386719 136.265625 309.117188 136.339844 308.867188 136.484375 L 308.589844 136.660156 C 308.402344 136.761719 308.253906 136.898438 308.140625 137.074219 C 308 137.226562 307.902344 137.40625 307.855469 137.617188 C 307.785156 137.828125 307.777344 138.042969 307.824219 138.253906 C 307.835938 138.464844 307.898438 138.664062 308.015625 138.847656 L 308.265625 139.167969 C 308.464844 139.367188 308.699219 139.503906 308.96875 139.578125 L 309.394531 139.636719 C 309.683594 139.636719 309.953125 139.5625 310.199219 139.417969 Z M 310.199219 139.417969 " fill-opacity="1" fill-rule="nonzero"/><path fill="#10d7e2" d="M 53.804688 70.585938 C 55.859375 70.585938 55.863281 67.390625 53.804688 67.390625 C 51.746094 67.390625 51.746094 70.585938 53.804688 70.585938 Z M 53.804688 70.585938 " fill-opacity="1" fill-rule="nonzero"/><path fill="#10d7e2" d="M 17.105469 59.839844 L 17.121094 60.171875 C 17.113281 60.390625 17.160156 60.597656 17.257812 60.785156 C 17.324219 60.984375 17.433594 61.15625 17.589844 61.300781 C 17.734375 61.457031 17.90625 61.566406 18.101562 61.628906 C 18.292969 61.730469 18.496094 61.777344 18.71875 61.769531 L 19.144531 61.710938 C 19.414062 61.636719 19.648438 61.496094 19.847656 61.300781 L 20.097656 60.976562 C 20.242188 60.730469 20.316406 60.460938 20.316406 60.171875 L 20.300781 59.839844 C 20.308594 59.621094 20.261719 59.417969 20.160156 59.226562 C 20.097656 59.027344 19.988281 58.855469 19.832031 58.710938 C 19.6875 58.554688 19.515625 58.445312 19.316406 58.382812 C 19.128906 58.285156 18.921875 58.238281 18.703125 58.246094 L 18.277344 58.300781 C 18.007812 58.378906 17.773438 58.515625 17.574219 58.710938 L 17.324219 59.035156 C 17.179688 59.285156 17.105469 59.550781 17.105469 59.839844 Z M 17.105469 59.839844 " fill-opacity="1" fill-rule="nonzero"/><path fill="#10d7e2" d="M 19.191406 86.871094 C 21.246094 86.871094 21.25 83.675781 19.191406 83.675781 C 17.132812 83.675781 17.132812 86.871094 19.191406 86.871094 Z M 19.191406 86.871094 " fill-opacity="1" fill-rule="nonzero"/><path fill="#10d7e2" d="M 276.839844 131.960938 C 278.898438 131.960938 278.898438 128.765625 276.839844 128.765625 C 274.78125 128.765625 274.78125 131.960938 276.839844 131.960938 Z M 276.839844 131.960938 " fill-opacity="1" fill-rule="nonzero"/><path fill="#10d7e2" d="M 243.539062 135.941406 L 243.714844 136.222656 C 243.816406 136.40625 243.953125 136.558594 244.128906 136.671875 C 244.28125 136.8125 244.460938 136.90625 244.671875 136.957031 C 244.882812 137.023438 245.097656 137.03125 245.308594 136.984375 C 245.519531 136.972656 245.71875 136.914062 245.902344 136.792969 L 246.222656 136.542969 C 246.421875 136.34375 246.558594 136.109375 246.632812 135.839844 L 246.691406 135.414062 C 246.691406 135.128906 246.617188 134.859375 246.472656 134.609375 L 246.296875 134.328125 C 246.195312 134.140625 246.058594 133.992188 245.882812 133.878906 C 245.730469 133.738281 245.550781 133.644531 245.339844 133.59375 C 245.128906 133.527344 244.917969 133.519531 244.703125 133.566406 C 244.492188 133.574219 244.292969 133.636719 244.109375 133.757812 L 243.789062 134.007812 C 243.589844 134.207031 243.453125 134.441406 243.378906 134.710938 L 243.320312 135.136719 C 243.320312 135.421875 243.394531 135.691406 243.539062 135.941406 Z M 243.539062 135.941406 " fill-opacity="1" fill-rule="nonzero"/><path fill="#10d7e2" d="M 222.296875 191.210938 C 224.351562 191.210938 224.355469 188.019531 222.296875 188.019531 C 220.238281 188.019531 220.238281 191.210938 222.296875 191.210938 Z M 222.296875 191.210938 " fill-opacity="1" fill-rule="nonzero"/><path fill="#10d7e2" d="M 327.980469 69.648438 C 329.171875 69.648438 329.171875 67.800781 327.980469 67.800781 C 326.789062 67.800781 326.789062 69.648438 327.980469 69.648438 Z M 327.980469 69.648438 " fill-opacity="1" fill-rule="nonzero"/><path fill="#10d7e2" d="M 350.960938 64.746094 C 352.691406 64.746094 352.695312 62.054688 350.960938 62.054688 C 349.226562 62.054688 349.226562 64.746094 350.960938 64.746094 Z M 350.960938 64.746094 " fill-opacity="1" fill-rule="nonzero"/><path fill="#10d7e2" d="M 232.96875 168.722656 C 234.375 168.722656 234.375 166.539062 232.96875 166.539062 C 231.558594 166.539062 231.558594 168.722656 232.96875 168.722656 Z M 232.96875 168.722656 " fill-opacity="1" fill-rule="nonzero"/><path fill="#10d7e2" d="M 257.429688 206.300781 C 259.269531 206.300781 259.273438 203.441406 257.429688 203.441406 C 255.589844 203.441406 255.589844 206.300781 257.429688 206.300781 Z M 257.429688 206.300781 " fill-opacity="1" fill-rule="nonzero"/><path fill="#10d7e2" d="M 117.039062 328.804688 C 118.554688 328.804688 118.554688 326.449219 117.039062 326.449219 C 115.523438 326.449219 115.523438 328.804688 117.039062 328.804688 Z M 117.039062 328.804688 " fill-opacity="1" fill-rule="nonzero"/><path fill="#10d7e2" d="M 1.292969 75.414062 C 2.589844 75.414062 2.59375 73.398438 1.292969 73.398438 C -0.00390625 73.398438 -0.00390625 75.414062 1.292969 75.414062 Z M 1.292969 75.414062 " fill-opacity="1" fill-rule="nonzero"/><path fill="#10d7e2" d="M 38.03125 138.46875 C 39.328125 138.46875 39.332031 136.453125 38.03125 136.453125 C 36.730469 136.453125 36.730469 138.46875 38.03125 138.46875 Z M 38.03125 138.46875 " fill-opacity="1" fill-rule="nonzero"/><path fill="#10d7e2" d="M 99.921875 109.636719 L 100.253906 109.621094 C 100.523438 109.609375 100.773438 109.519531 100.96875 109.324219 C 101.066406 109.234375 101.136719 109.125 101.175781 109 C 101.238281 108.878906 101.269531 108.75 101.261719 108.613281 C 101.25 108.351562 101.164062 108.082031 100.96875 107.898438 C 100.769531 107.71875 100.523438 107.589844 100.253906 107.605469 L 99.921875 107.621094 C 99.65625 107.632812 99.402344 107.722656 99.210938 107.917969 C 99.113281 108.007812 99.042969 108.117188 99.003906 108.242188 C 98.9375 108.363281 98.910156 108.492188 98.914062 108.628906 C 98.925781 108.890625 99.011719 109.160156 99.210938 109.34375 C 99.410156 109.523438 99.65625 109.652344 99.921875 109.636719 Z M 99.921875 109.636719 " fill-opacity="1" fill-rule="nonzero"/><path fill="#10d7e2" d="M 86.484375 124.589844 C 88.105469 124.589844 88.109375 122.070312 86.484375 122.070312 C 84.859375 122.070312 84.859375 124.589844 86.484375 124.589844 Z M 86.484375 124.589844 " fill-opacity="1" fill-rule="nonzero"/><path fill="#10d7e2" d="M 133.625 110.164062 C 134.816406 110.164062 134.816406 108.3125 133.625 108.3125 C 132.433594 108.3125 132.433594 110.164062 133.625 110.164062 Z M 133.625 110.164062 " fill-opacity="1" fill-rule="nonzero"/><path fill="#10d7e2" d="M 19.578125 316.871094 C 20.984375 316.871094 20.988281 314.6875 19.578125 314.6875 C 18.171875 314.6875 18.171875 316.871094 19.578125 316.871094 Z M 19.578125 316.871094 " fill-opacity="1" fill-rule="nonzero"/><path fill="#10d7e2" d="M 283.480469 112.226562 C 285.535156 112.226562 285.539062 109.03125 283.480469 109.03125 C 281.417969 109.03125 281.417969 112.226562 283.480469 112.226562 Z M 283.480469 112.226562 " fill-opacity="1" fill-rule="nonzero"/><path fill="#10d7e2" d="M 239.839844 76.539062 C 241.570312 76.539062 241.570312 73.847656 239.839844 73.847656 C 238.105469 73.847656 238.105469 76.539062 239.839844 76.539062 Z M 239.839844 76.539062 " fill-opacity="1" fill-rule="nonzero"/><g clip-path="url(#12db8a0120)"><path fill="#10d7e2" d="M 42.070312 334.222656 C 43.367188 334.222656 43.367188 332.207031 42.070312 332.207031 C 40.769531 332.207031 40.769531 334.222656 42.070312 334.222656 Z M 42.070312 334.222656 " fill-opacity="1" fill-rule="nonzero"/></g><path fill="#10d7e2" d="M 366.539062 83.503906 C 367.730469 83.503906 367.730469 81.65625 366.539062 81.65625 C 365.347656 81.65625 365.347656 83.503906 366.539062 83.503906 Z M 366.539062 83.503906 " fill-opacity="1" fill-rule="nonzero"/><path fill="#10d7e2" d="M 340.191406 85.523438 C 341.8125 85.523438 341.816406 83 340.191406 83 C 338.566406 83 338.566406 85.523438 340.191406 85.523438 Z M 340.191406 85.523438 " fill-opacity="1" fill-rule="nonzero"/><path fill="#10d7e2" d="M 199.644531 157.382812 C 200.722656 157.382812 200.726562 155.699219 199.644531 155.699219 C 198.558594 155.699219 198.558594 157.382812 199.644531 157.382812 Z M 199.644531 157.382812 " fill-opacity="1" fill-rule="nonzero"/><path fill="#10d7e2" d="M 192.523438 193.9375 L 192.347656 193.65625 C 192.222656 193.453125 192.027344 193.296875 191.796875 193.230469 C 191.671875 193.191406 191.550781 193.1875 191.429688 193.214844 C 191.304688 193.21875 191.191406 193.257812 191.085938 193.324219 C 190.886719 193.453125 190.714844 193.640625 190.660156 193.875 C 190.605469 194.113281 190.621094 194.375 190.753906 194.589844 L 190.929688 194.871094 C 191.054688 195.070312 191.25 195.230469 191.480469 195.296875 C 191.605469 195.332031 191.726562 195.339844 191.851562 195.3125 C 191.972656 195.308594 192.085938 195.269531 192.191406 195.203125 C 192.390625 195.074219 192.5625 194.886719 192.617188 194.648438 C 192.671875 194.414062 192.65625 194.152344 192.523438 193.9375 Z M 192.523438 193.9375 " fill-opacity="1" fill-rule="nonzero"/><path fill="#10d7e2" d="M 267.429688 91.246094 C 268.078125 91.246094 268.078125 90.238281 267.429688 90.238281 C 266.777344 90.238281 266.777344 91.246094 267.429688 91.246094 Z M 267.429688 91.246094 " fill-opacity="1" fill-rule="nonzero"/><path fill="#10d7e2" d="M 132.3125 53.5 C 133.285156 53.5 133.289062 51.988281 132.3125 51.988281 C 131.339844 51.988281 131.339844 53.5 132.3125 53.5 Z M 132.3125 53.5 " fill-opacity="1" fill-rule="nonzero"/><path fill="#10d7e2" d="M 312.023438 68.769531 C 312.886719 68.769531 312.890625 67.425781 312.023438 67.425781 C 311.15625 67.425781 311.15625 68.769531 312.023438 68.769531 Z M 312.023438 68.769531 " fill-opacity="1" fill-rule="nonzero"/><path fill="#10d7e2" d="M 53.609375 69.550781 C 54.472656 69.550781 54.476562 68.207031 53.609375 68.207031 C 52.742188 68.207031 52.742188 69.550781 53.609375 69.550781 Z M 53.609375 69.550781 " fill-opacity="1" fill-rule="nonzero"/><path fill="#10d7e2" d="M 97.640625 142.335938 C 98.507812 142.335938 98.507812 140.988281 97.640625 140.988281 C 96.773438 140.988281 96.773438 142.335938 97.640625 142.335938 Z M 97.640625 142.335938 " fill-opacity="1" fill-rule="nonzero"/><path fill="#10d7e2" d="M 207.425781 177.378906 C 208.289062 177.378906 208.292969 176.035156 207.425781 176.035156 C 206.558594 176.035156 206.558594 177.378906 207.425781 177.378906 Z M 207.425781 177.378906 " fill-opacity="1" fill-rule="nonzero"/><path fill="#10d7e2" d="M 126.113281 171.117188 C 128.167969 171.117188 128.171875 167.925781 126.113281 167.925781 C 124.054688 167.925781 124.054688 171.117188 126.113281 171.117188 Z M 126.113281 171.117188 " fill-opacity="1" fill-rule="nonzero"/><path fill="#10d7e2" d="M 114.898438 186.886719 C 116.953125 186.886719 116.957031 183.691406 114.898438 183.691406 C 112.835938 183.691406 112.835938 186.886719 114.898438 186.886719 Z M 114.898438 186.886719 " fill-opacity="1" fill-rule="nonzero"/><path fill="#10d7e2" d="M 62.910156 195.164062 C 64.640625 195.164062 64.644531 192.472656 62.910156 192.472656 C 61.179688 192.472656 61.179688 195.164062 62.910156 195.164062 Z M 62.910156 195.164062 " fill-opacity="1" fill-rule="nonzero"/><path fill="#10d7e2" d="M 147.332031 254.617188 C 148.84375 254.617188 148.847656 252.261719 147.332031 252.261719 C 145.816406 252.261719 145.816406 254.617188 147.332031 254.617188 Z M 147.332031 254.617188 " fill-opacity="1" fill-rule="nonzero"/><path fill="#10d7e2" d="M 131.582031 264.191406 L 131.824219 264.042969 C 131.941406 263.976562 132.035156 263.890625 132.105469 263.78125 C 132.195312 263.683594 132.253906 263.570312 132.285156 263.4375 C 132.328125 263.304688 132.335938 263.167969 132.304688 263.035156 C 132.296875 262.902344 132.257812 262.777344 132.183594 262.660156 L 132.027344 262.457031 C 131.902344 262.332031 131.753906 262.246094 131.582031 262.199219 L 131.3125 262.164062 C 131.128906 262.164062 130.960938 262.210938 130.804688 262.300781 L 130.5625 262.453125 C 130.445312 262.515625 130.351562 262.601562 130.28125 262.714844 C 130.191406 262.8125 130.128906 262.925781 130.101562 263.054688 C 130.058594 263.191406 130.050781 263.324219 130.082031 263.457031 C 130.089844 263.59375 130.128906 263.71875 130.203125 263.832031 L 130.359375 264.035156 C 130.484375 264.160156 130.632812 264.246094 130.804688 264.296875 L 131.074219 264.332031 C 131.253906 264.332031 131.425781 264.28125 131.582031 264.191406 Z M 131.582031 264.191406 " fill-opacity="1" fill-rule="nonzero"/><path fill="#10d7e2" d="M 137.4375 256.957031 L 137.679688 256.808594 C 137.863281 256.691406 138.007812 256.515625 138.066406 256.304688 C 138.101562 256.195312 138.105469 256.082031 138.082031 255.96875 C 138.074219 255.859375 138.042969 255.753906 137.980469 255.65625 C 137.867188 255.476562 137.695312 255.320312 137.480469 255.269531 C 137.261719 255.222656 137.023438 255.234375 136.832031 255.355469 L 136.589844 255.507812 C 136.40625 255.621094 136.261719 255.800781 136.203125 256.007812 C 136.167969 256.121094 136.164062 256.234375 136.191406 256.34375 C 136.195312 256.457031 136.226562 256.558594 136.289062 256.65625 C 136.40625 256.835938 136.578125 256.992188 136.792969 257.042969 C 137.007812 257.089844 137.246094 257.078125 137.4375 256.957031 Z M 137.4375 256.957031 " fill-opacity="1" fill-rule="nonzero"/><path fill="#10d7e2" d="M 121.386719 276.261719 L 121.625 276.113281 C 121.773438 276.03125 121.890625 275.921875 121.980469 275.789062 C 122.089844 275.667969 122.164062 275.523438 122.203125 275.359375 C 122.257812 275.191406 122.265625 275.023438 122.226562 274.855469 C 122.21875 274.6875 122.167969 274.53125 122.078125 274.386719 L 121.878906 274.132812 C 121.722656 273.976562 121.539062 273.867188 121.324219 273.808594 L 120.988281 273.761719 C 120.761719 273.761719 120.550781 273.820312 120.351562 273.933594 L 120.113281 274.085938 C 119.964844 274.164062 119.847656 274.273438 119.757812 274.410156 C 119.648438 274.53125 119.574219 274.671875 119.535156 274.839844 C 119.480469 275.007812 119.472656 275.171875 119.511719 275.339844 C 119.519531 275.507812 119.570312 275.664062 119.660156 275.808594 L 119.859375 276.066406 C 120.015625 276.222656 120.199219 276.328125 120.414062 276.390625 L 120.75 276.433594 C 120.976562 276.433594 121.1875 276.375 121.386719 276.261719 Z M 121.386719 276.261719 " fill-opacity="1" fill-rule="nonzero"/><path fill="#10d7e2" d="M 129.035156 260.1875 L 129.199219 260.085938 C 129.414062 259.96875 129.585938 259.8125 129.71875 259.609375 C 129.878906 259.433594 129.992188 259.222656 130.046875 258.980469 C 130.125 258.738281 130.136719 258.492188 130.082031 258.246094 C 130.070312 258 129.996094 257.769531 129.863281 257.558594 L 129.574219 257.183594 C 129.34375 256.953125 129.070312 256.792969 128.757812 256.707031 L 128.265625 256.640625 C 127.933594 256.640625 127.621094 256.726562 127.332031 256.894531 L 127.171875 256.996094 C 126.957031 257.113281 126.78125 257.269531 126.652344 257.472656 C 126.488281 257.648438 126.378906 257.859375 126.320312 258.101562 C 126.242188 258.34375 126.234375 258.589844 126.285156 258.835938 C 126.296875 259.082031 126.371094 259.3125 126.507812 259.523438 L 126.796875 259.898438 C 127.027344 260.128906 127.296875 260.289062 127.609375 260.375 L 128.101562 260.441406 C 128.4375 260.441406 128.746094 260.355469 129.035156 260.1875 Z M 129.035156 260.1875 " fill-opacity="1" fill-rule="nonzero"/><path fill="#10d7e2" d="M 91.53125 191.121094 C 94.234375 191.121094 94.238281 186.921875 91.53125 186.921875 C 88.824219 186.921875 88.824219 191.121094 91.53125 191.121094 Z M 91.53125 191.121094 " fill-opacity="1" fill-rule="nonzero"/><path fill="#10d7e2" d="M 140.972656 66.195312 L 140.597656 66.214844 C 140.285156 66.203125 139.992188 66.269531 139.722656 66.410156 C 139.441406 66.503906 139.199219 66.660156 138.992188 66.878906 C 138.769531 67.085938 138.613281 67.328125 138.523438 67.609375 C 138.382812 67.878906 138.316406 68.171875 138.328125 68.484375 L 138.410156 69.085938 C 138.515625 69.472656 138.710938 69.804688 138.992188 70.089844 L 139.453125 70.445312 C 139.804688 70.648438 140.1875 70.753906 140.597656 70.753906 L 140.972656 70.734375 C 141.289062 70.746094 141.578125 70.679688 141.847656 70.539062 C 142.128906 70.445312 142.371094 70.289062 142.578125 70.070312 C 142.800781 69.863281 142.957031 69.621094 143.046875 69.339844 C 143.191406 69.070312 143.253906 68.777344 143.242188 68.464844 L 143.160156 67.863281 C 143.054688 67.476562 142.859375 67.144531 142.578125 66.859375 L 142.121094 66.503906 C 141.765625 66.300781 141.382812 66.195312 140.972656 66.195312 Z M 140.972656 66.195312 " fill-opacity="1" fill-rule="nonzero"/><path fill="#10d7e2" d="M 125.9375 80 C 128.53125 80 128.535156 75.964844 125.9375 75.964844 C 123.335938 75.964844 123.335938 80 125.9375 80 Z M 125.9375 80 " fill-opacity="1" fill-rule="nonzero"/><path fill="#10d7e2" d="M 86.484375 125.179688 C 88.863281 125.179688 88.867188 121.480469 86.484375 121.480469 C 84.101562 121.480469 84.101562 125.179688 86.484375 125.179688 Z M 86.484375 125.179688 " fill-opacity="1" fill-rule="nonzero"/><path fill="#10d7e2" d="M 53.804688 71.339844 L 54.011719 71.328125 C 55.28125 71.261719 56.367188 70.296875 56.367188 68.976562 C 56.367188 67.753906 55.289062 66.554688 54.011719 66.625 L 53.804688 66.636719 C 52.535156 66.703125 51.453125 67.667969 51.453125 68.988281 C 51.453125 70.210938 52.527344 71.410156 53.804688 71.339844 L 54.011719 71.328125 C 55.28125 71.261719 56.367188 70.296875 56.367188 68.976562 C 56.367188 67.753906 55.289062 66.554688 54.011719 66.625 L 53.804688 66.636719 C 52.535156 66.703125 51.453125 67.667969 51.453125 68.988281 C 51.453125 70.210938 52.527344 71.410156 53.804688 71.339844 Z M 53.804688 71.339844 " fill-opacity="1" fill-rule="nonzero"/><path fill="#10d7e2" d="M 317.742188 47.972656 C 320.339844 47.972656 320.34375 43.941406 317.742188 43.941406 C 315.144531 43.941406 315.144531 47.972656 317.742188 47.972656 Z M 317.742188 47.972656 " fill-opacity="1" fill-rule="nonzero"/><path fill="#10d7e2" d="M 305.726562 56.976562 C 307.890625 56.976562 307.894531 53.617188 305.726562 53.617188 C 303.5625 53.617188 303.5625 56.976562 305.726562 56.976562 Z M 305.726562 56.976562 " fill-opacity="1" fill-rule="nonzero"/><path fill="#10d7e2" d="M 37.652344 139.664062 L 38.03125 139.644531 C 38.332031 139.65625 38.613281 139.59375 38.875 139.457031 C 39.144531 139.371094 39.378906 139.21875 39.574219 139.003906 C 39.789062 138.804688 39.9375 138.574219 40.027344 138.300781 C 40.164062 138.042969 40.226562 137.761719 40.214844 137.460938 L 40.140625 136.878906 C 40.035156 136.507812 39.847656 136.1875 39.578125 135.914062 L 39.136719 135.574219 C 38.792969 135.375 38.429688 135.273438 38.03125 135.273438 L 37.65625 135.296875 C 37.355469 135.285156 37.074219 135.347656 36.8125 135.484375 C 36.542969 135.570312 36.308594 135.722656 36.109375 135.9375 C 35.898438 136.132812 35.746094 136.367188 35.65625 136.636719 C 35.523438 136.898438 35.457031 137.179688 35.46875 137.480469 L 35.546875 138.0625 C 35.652344 138.433594 35.835938 138.753906 36.109375 139.027344 L 36.550781 139.367188 C 36.890625 139.566406 37.257812 139.664062 37.652344 139.664062 Z M 37.652344 139.664062 " fill-opacity="1" fill-rule="nonzero"/><path fill="#10d7e2" d="M 55.226562 125.179688 C 56.738281 125.179688 56.742188 122.828125 55.226562 122.828125 C 53.707031 122.828125 53.707031 125.179688 55.226562 125.179688 Z M 55.226562 125.179688 " fill-opacity="1" fill-rule="nonzero"/><path fill="#10d7e2" d="M 79.121094 142.054688 C 80.851562 142.054688 80.851562 139.363281 79.121094 139.363281 C 77.386719 139.363281 77.386719 142.054688 79.121094 142.054688 Z M 79.121094 142.054688 " fill-opacity="1" fill-rule="nonzero"/><path fill="#10d7e2" d="M 69.035156 156.296875 C 70.871094 156.296875 70.875 153.4375 69.035156 153.4375 C 67.191406 153.4375 67.191406 156.296875 69.035156 156.296875 Z M 69.035156 156.296875 " fill-opacity="1" fill-rule="nonzero"/><path fill="#10d7e2" d="M 20.558594 72.507812 L 20.621094 72.6875 C 20.644531 72.785156 20.691406 72.871094 20.757812 72.941406 C 20.8125 73.023438 20.882812 73.089844 20.96875 73.136719 C 21.058594 73.191406 21.148438 73.222656 21.25 73.226562 C 21.351562 73.25 21.453125 73.246094 21.550781 73.214844 L 21.730469 73.136719 C 21.847656 73.070312 21.933594 72.980469 22.003906 72.867188 L 22.078125 72.6875 C 22.113281 72.554688 22.113281 72.417969 22.078125 72.285156 L 22.015625 72.109375 C 21.992188 72.007812 21.945312 71.921875 21.878906 71.851562 C 21.824219 71.769531 21.753906 71.703125 21.667969 71.65625 C 21.582031 71.601562 21.488281 71.570312 21.386719 71.566406 C 21.285156 71.542969 21.183594 71.546875 21.085938 71.578125 L 20.90625 71.65625 C 20.792969 71.722656 20.703125 71.8125 20.636719 71.925781 L 20.558594 72.105469 C 20.523438 72.242188 20.523438 72.375 20.558594 72.507812 Z M 20.558594 72.507812 " fill-opacity="1" fill-rule="nonzero"/><path fill="#10d7e2" d="M 22.390625 59.195312 L 22.449219 59.375 C 22.488281 59.539062 22.566406 59.683594 22.675781 59.804688 C 22.765625 59.941406 22.882812 60.046875 23.027344 60.128906 C 23.171875 60.21875 23.328125 60.269531 23.496094 60.277344 C 23.667969 60.3125 23.832031 60.308594 24 60.253906 L 24.300781 60.128906 C 24.492188 60.015625 24.640625 59.863281 24.753906 59.675781 L 24.882812 59.375 C 24.941406 59.152344 24.941406 58.925781 24.882812 58.703125 L 24.820312 58.527344 C 24.78125 58.359375 24.703125 58.21875 24.59375 58.097656 C 24.503906 57.960938 24.386719 57.851562 24.242188 57.773438 C 24.097656 57.679688 23.941406 57.632812 23.773438 57.625 C 23.605469 57.585938 23.4375 57.59375 23.269531 57.644531 L 22.96875 57.773438 C 22.777344 57.886719 22.628906 58.035156 22.515625 58.226562 L 22.390625 58.527344 C 22.328125 58.75 22.328125 58.972656 22.390625 59.195312 Z M 22.390625 59.195312 " fill-opacity="1" fill-rule="nonzero"/><path fill="#10d7e2" d="M 337.355469 79.832031 C 338.757812 79.832031 338.761719 77.648438 337.355469 77.648438 C 335.945312 77.648438 335.945312 79.832031 337.355469 79.832031 Z M 337.355469 79.832031 " fill-opacity="1" fill-rule="nonzero"/><path fill="#10d7e2" d="M 311.375 66.8125 C 312.675781 66.8125 312.675781 64.792969 311.375 64.792969 C 310.078125 64.792969 310.078125 66.8125 311.375 66.8125 Z M 311.375 66.8125 " fill-opacity="1" fill-rule="nonzero"/><path fill="#10d7e2" d="M 222.214844 170.914062 C 223.835938 170.914062 223.839844 168.390625 222.214844 168.390625 C 220.589844 168.390625 220.589844 170.914062 222.214844 170.914062 Z M 222.214844 170.914062 " fill-opacity="1" fill-rule="nonzero"/><path fill="#10d7e2" d="M 225.886719 158.058594 C 227.289062 158.058594 227.292969 155.871094 225.886719 155.871094 C 224.476562 155.871094 224.476562 158.058594 225.886719 158.058594 Z M 225.886719 158.058594 " fill-opacity="1" fill-rule="nonzero"/><path fill="#10d7e2" d="M 185.914062 164.839844 C 187.644531 164.839844 187.648438 162.152344 185.914062 162.152344 C 184.183594 162.152344 184.183594 164.839844 185.914062 164.839844 Z M 185.914062 164.839844 " fill-opacity="1" fill-rule="nonzero"/><path fill="#10d7e2" d="M 181.078125 175.738281 C 182.484375 175.738281 182.488281 173.550781 181.078125 173.550781 C 179.671875 173.550781 179.671875 175.738281 181.078125 175.738281 Z M 181.078125 175.738281 " fill-opacity="1" fill-rule="nonzero"/><path fill="#10d7e2" d="M 77.089844 192.675781 C 78.710938 192.675781 78.714844 190.15625 77.089844 190.15625 C 75.464844 190.15625 75.464844 192.675781 77.089844 192.675781 Z M 77.089844 192.675781 " fill-opacity="1" fill-rule="nonzero"/><path fill="#10d7e2" d="M 113.910156 275.0625 C 115.3125 275.0625 115.316406 272.875 113.910156 272.875 C 112.5 272.875 112.5 275.0625 113.910156 275.0625 Z M 113.910156 275.0625 " fill-opacity="1" fill-rule="nonzero"/><path fill="#10d7e2" d="M 101.425781 275.03125 C 103.046875 275.03125 103.050781 272.511719 101.425781 272.511719 C 99.800781 272.511719 99.800781 275.03125 101.425781 275.03125 Z M 101.425781 275.03125 " fill-opacity="1" fill-rule="nonzero"/><path fill="#10d7e2" d="M 151.382812 247.242188 C 153.328125 247.242188 153.332031 244.21875 151.382812 244.21875 C 149.433594 244.21875 149.433594 247.242188 151.382812 247.242188 Z M 151.382812 247.242188 " fill-opacity="1" fill-rule="nonzero"/><path fill="#10d7e2" d="M 154.757812 238.425781 C 156.488281 238.425781 156.488281 235.738281 154.757812 235.738281 C 153.023438 235.738281 153.023438 238.425781 154.757812 238.425781 Z M 154.757812 238.425781 " fill-opacity="1" fill-rule="nonzero"/><path fill="#10d7e2" d="M 209.179688 191.0625 C 211.234375 191.0625 211.238281 187.871094 209.179688 187.871094 C 207.121094 187.871094 207.121094 191.0625 209.179688 191.0625 Z M 209.179688 191.0625 " fill-opacity="1" fill-rule="nonzero"/><path fill="#10d7e2" d="M 115.15625 175.917969 C 117.425781 175.917969 117.429688 172.390625 115.15625 172.390625 C 112.882812 172.390625 112.882812 175.917969 115.15625 175.917969 Z M 115.15625 175.917969 " fill-opacity="1" fill-rule="nonzero"/><path fill="#10d7e2" d="M 316.617188 76.859375 C 318.996094 76.859375 319 73.164062 316.617188 73.164062 C 314.234375 73.164062 314.234375 76.859375 316.617188 76.859375 Z M 316.617188 76.859375 " fill-opacity="1" fill-rule="nonzero"/><path fill="#10d7e2" d="M 20.789062 314.832031 L 20.648438 314.707031 C 20.511719 314.558594 20.351562 314.457031 20.160156 314.394531 C 19.980469 314.300781 19.785156 314.257812 19.578125 314.265625 C 19.371094 314.253906 19.175781 314.300781 18.996094 314.394531 C 18.808594 314.457031 18.644531 314.558594 18.507812 314.707031 L 18.269531 315.015625 C 18.136719 315.25 18.066406 315.503906 18.0625 315.777344 L 18.117188 316.179688 C 18.191406 316.433594 18.320312 316.65625 18.507812 316.847656 L 18.648438 316.972656 C 18.785156 317.121094 18.945312 317.222656 19.136719 317.285156 C 19.316406 317.378906 19.507812 317.421875 19.71875 317.414062 C 19.925781 317.425781 20.121094 317.378906 20.300781 317.285156 C 20.488281 317.222656 20.652344 317.121094 20.789062 316.972656 L 21.027344 316.664062 C 21.160156 316.429688 21.230469 316.175781 21.230469 315.902344 L 21.179688 315.5 C 21.105469 315.246094 20.976562 315.023438 20.789062 314.832031 Z M 20.789062 314.832031 " fill-opacity="1" fill-rule="nonzero"/><path fill="#10d7e2" d="M 75.703125 263.921875 C 77.109375 263.921875 77.109375 261.738281 75.703125 261.738281 C 74.292969 261.738281 74.292969 263.921875 75.703125 263.921875 Z M 75.703125 263.921875 " fill-opacity="1" fill-rule="nonzero"/><path fill="#10d7e2" d="M 171.976562 223.507812 C 173.597656 223.507812 173.601562 220.988281 171.976562 220.988281 C 170.351562 220.988281 170.351562 223.507812 171.976562 223.507812 Z M 171.976562 223.507812 " fill-opacity="1" fill-rule="nonzero"/><path fill="#10d7e2" d="M 184.507812 226.535156 C 185.804688 226.535156 185.804688 224.519531 184.507812 224.519531 C 183.207031 224.519531 183.207031 226.535156 184.507812 226.535156 Z M 184.507812 226.535156 " fill-opacity="1" fill-rule="nonzero"/><path fill="#10d7e2" d="M 178.585938 210.648438 C 180.207031 210.648438 180.210938 208.125 178.585938 208.125 C 176.960938 208.125 176.960938 210.648438 178.585938 210.648438 Z M 178.585938 210.648438 " fill-opacity="1" fill-rule="nonzero"/><path fill="#10d7e2" d="M 163.542969 239.3125 C 164.84375 239.3125 164.84375 237.292969 163.542969 237.292969 C 162.246094 237.292969 162.246094 239.3125 163.542969 239.3125 Z M 163.542969 239.3125 " fill-opacity="1" fill-rule="nonzero"/><path fill="#10d7e2" d="M 197.851562 173.75 C 199.367188 173.75 199.367188 171.398438 197.851562 171.398438 C 196.335938 171.398438 196.335938 173.75 197.851562 173.75 Z M 197.851562 173.75 " fill-opacity="1" fill-rule="nonzero"/><path fill="#10d7e2" d="M 220.441406 147.652344 C 221.84375 147.652344 221.847656 145.46875 220.441406 145.46875 C 219.03125 145.46875 219.03125 147.652344 220.441406 147.652344 Z M 220.441406 147.652344 " fill-opacity="1" fill-rule="nonzero"/><path fill="#10d7e2" d="M 242.851562 111.945312 C 244.363281 111.945312 244.367188 109.59375 242.851562 109.59375 C 241.335938 109.59375 241.335938 111.945312 242.851562 111.945312 Z M 242.851562 111.945312 " fill-opacity="1" fill-rule="nonzero"/><path fill="#10d7e2" d="M 244.980469 125.058594 C 246.28125 125.058594 246.28125 123.042969 244.980469 123.042969 C 243.683594 123.042969 243.683594 125.058594 244.980469 125.058594 Z M 244.980469 125.058594 " fill-opacity="1" fill-rule="nonzero"/><path fill="#10d7e2" d="M 260.070312 95.003906 C 261.800781 95.003906 261.800781 92.3125 260.070312 92.3125 C 258.335938 92.3125 258.335938 95.003906 260.070312 95.003906 Z M 260.070312 95.003906 " fill-opacity="1" fill-rule="nonzero"/><path fill="#10d7e2" d="M 54.871094 231.589844 C 56.382812 231.589844 56.386719 229.238281 54.871094 229.238281 C 53.355469 229.238281 53.355469 231.589844 54.871094 231.589844 Z M 54.871094 231.589844 " fill-opacity="1" fill-rule="nonzero"/><path fill="#10d7e2" d="M 43.046875 251.214844 C 44.234375 251.214844 44.238281 249.367188 43.046875 249.367188 C 41.855469 249.367188 41.855469 251.214844 43.046875 251.214844 Z M 43.046875 251.214844 " fill-opacity="1" fill-rule="nonzero"/><path fill="#10d7e2" d="M 293.507812 112.414062 L 293.382812 112.554688 C 293.234375 112.691406 293.128906 112.855469 293.070312 113.042969 C 292.976562 113.222656 292.929688 113.417969 292.9375 113.625 C 292.929688 113.835938 292.972656 114.027344 293.070312 114.210938 C 293.128906 114.398438 293.234375 114.558594 293.382812 114.695312 L 293.6875 114.933594 C 293.921875 115.070312 294.179688 115.140625 294.449219 115.140625 L 294.851562 115.085938 C 295.109375 115.015625 295.332031 114.886719 295.519531 114.699219 L 295.644531 114.558594 C 295.792969 114.417969 295.898438 114.257812 295.957031 114.070312 C 296.050781 113.890625 296.09375 113.695312 296.089844 113.488281 C 296.097656 113.277344 296.054688 113.085938 295.957031 112.902344 C 295.898438 112.714844 295.792969 112.554688 295.644531 112.414062 L 295.339844 112.179688 C 295.105469 112.042969 294.847656 111.972656 294.578125 111.972656 L 294.175781 112.027344 C 293.917969 112.097656 293.695312 112.226562 293.507812 112.414062 Z M 293.507812 112.414062 " fill-opacity="1" fill-rule="nonzero"/><path fill="#10d7e2" d="M 312.246094 118.535156 C 313.542969 118.535156 313.546875 116.519531 312.246094 116.519531 C 310.949219 116.519531 310.949219 118.535156 312.246094 118.535156 Z M 312.246094 118.535156 " fill-opacity="1" fill-rule="nonzero"/><path fill="#10d7e2" d="M 302.390625 88.152344 L 302.265625 88.292969 C 302.117188 88.433594 302.011719 88.59375 301.953125 88.78125 C 301.855469 88.960938 301.8125 89.15625 301.820312 89.363281 C 301.8125 89.574219 301.855469 89.765625 301.953125 89.949219 C 302.011719 90.136719 302.117188 90.296875 302.265625 90.4375 L 302.570312 90.671875 C 302.804688 90.808594 303.0625 90.878906 303.332031 90.878906 L 303.734375 90.824219 C 303.988281 90.753906 304.214844 90.625 304.402344 90.4375 L 304.527344 90.296875 C 304.675781 90.160156 304.78125 89.996094 304.839844 89.808594 C 304.933594 89.628906 304.976562 89.433594 304.972656 89.226562 C 304.980469 89.015625 304.9375 88.824219 304.839844 88.640625 C 304.78125 88.453125 304.675781 88.292969 304.527344 88.15625 L 304.222656 87.917969 C 303.988281 87.78125 303.730469 87.710938 303.457031 87.710938 L 303.058594 87.765625 C 302.800781 87.835938 302.578125 87.964844 302.390625 88.152344 Z M 302.390625 88.152344 " fill-opacity="1" fill-rule="nonzero"/><path fill="#10d7e2" d="M 272.402344 95.5625 C 273.699219 95.5625 273.699219 93.546875 272.402344 93.546875 C 271.101562 93.546875 271.101562 95.5625 272.402344 95.5625 Z M 272.402344 95.5625 " fill-opacity="1" fill-rule="nonzero"/><path fill="#10d7e2" d="M 244.15625 128.199219 C 245.777344 128.199219 245.78125 125.675781 244.15625 125.675781 C 242.53125 125.675781 242.53125 128.199219 244.15625 128.199219 Z M 244.15625 128.199219 " fill-opacity="1" fill-rule="nonzero"/><path fill="#10d7e2" d="M 208.191406 154.90625 C 210.027344 154.90625 210.03125 152.050781 208.191406 152.050781 C 206.347656 152.050781 206.347656 154.90625 208.191406 154.90625 Z M 208.191406 154.90625 " fill-opacity="1" fill-rule="nonzero"/><path fill="#10d7e2" d="M 75.542969 134.234375 C 77.164062 134.234375 77.167969 131.714844 75.542969 131.714844 C 73.917969 131.714844 73.917969 134.234375 75.542969 134.234375 Z M 75.542969 134.234375 " fill-opacity="1" fill-rule="nonzero"/><path fill="#10d7e2" d="M 65.332031 129.988281 C 66.953125 129.988281 66.957031 127.464844 65.332031 127.464844 C 63.707031 127.464844 63.707031 129.988281 65.332031 129.988281 Z M 65.332031 129.988281 " fill-opacity="1" fill-rule="nonzero"/><path fill="#10d7e2" d="M 64.289062 125.804688 C 65.476562 125.804688 65.480469 123.957031 64.289062 123.957031 C 63.09375 123.957031 63.09375 125.804688 64.289062 125.804688 Z M 64.289062 125.804688 " fill-opacity="1" fill-rule="nonzero"/><path fill="#10d7e2" d="M 72.621094 121.164062 L 72.527344 120.898438 C 72.480469 120.710938 72.398438 120.550781 72.269531 120.414062 C 72.167969 120.257812 72.035156 120.132812 71.871094 120.042969 C 71.707031 119.941406 71.53125 119.882812 71.339844 119.875 C 71.148438 119.832031 70.960938 119.839844 70.769531 119.898438 L 70.429688 120.042969 C 70.214844 120.171875 70.042969 120.34375 69.914062 120.558594 L 69.769531 120.898438 C 69.703125 121.152344 69.703125 121.40625 69.769531 121.65625 L 69.867188 121.925781 C 69.910156 122.113281 69.996094 122.273438 70.121094 122.410156 C 70.222656 122.566406 70.355469 122.691406 70.519531 122.777344 C 70.6875 122.882812 70.863281 122.941406 71.050781 122.949219 C 71.242188 122.992188 71.433594 122.984375 71.621094 122.921875 L 71.964844 122.777344 C 72.179688 122.652344 72.347656 122.480469 72.476562 122.265625 L 72.621094 121.925781 C 72.6875 121.671875 72.6875 121.417969 72.621094 121.164062 Z M 72.621094 121.164062 " fill-opacity="1" fill-rule="nonzero"/><path fill="#10d7e2" d="M 98.429688 133.949219 C 100.699219 133.949219 100.703125 130.417969 98.429688 130.417969 C 96.15625 130.417969 96.15625 133.949219 98.429688 133.949219 Z M 98.429688 133.949219 " fill-opacity="1" fill-rule="nonzero"/><path fill="#10d7e2" d="M 51.019531 121.84375 C 52.753906 121.84375 52.753906 119.152344 51.019531 119.152344 C 49.289062 119.152344 49.289062 121.84375 51.019531 121.84375 Z M 51.019531 121.84375 " fill-opacity="1" fill-rule="nonzero"/><path fill="#10d7e2" d="M 55.042969 120.269531 C 56.554688 120.269531 56.558594 117.914062 55.042969 117.914062 C 53.527344 117.914062 53.527344 120.269531 55.042969 120.269531 Z M 55.042969 120.269531 " fill-opacity="1" fill-rule="nonzero"/><path fill="#10d7e2" d="M 51.949219 117.273438 C 53.246094 117.273438 53.246094 115.257812 51.949219 115.257812 C 50.648438 115.257812 50.648438 117.273438 51.949219 117.273438 Z M 51.949219 117.273438 " fill-opacity="1" fill-rule="nonzero"/><path fill="#10d7e2" d="M 16.597656 331.253906 L 16.808594 331.441406 C 16.929688 331.570312 17.074219 331.664062 17.242188 331.71875 C 17.402344 331.800781 17.574219 331.839844 17.761719 331.835938 C 17.945312 331.839844 18.117188 331.800781 18.277344 331.71875 C 18.445312 331.664062 18.589844 331.570312 18.710938 331.441406 L 18.917969 331.167969 C 19.039062 330.957031 19.101562 330.734375 19.101562 330.488281 L 19.054688 330.132812 C 18.992188 329.902344 18.875 329.707031 18.707031 329.539062 L 18.496094 329.351562 C 18.375 329.21875 18.230469 329.125 18.0625 329.074219 C 17.90625 328.988281 17.730469 328.949219 17.546875 328.957031 C 17.363281 328.949219 17.1875 328.988281 17.027344 329.074219 C 16.863281 329.125 16.71875 329.21875 16.597656 329.351562 L 16.386719 329.621094 C 16.265625 329.832031 16.203125 330.058594 16.203125 330.300781 L 16.253906 330.660156 C 16.316406 330.886719 16.433594 331.085938 16.597656 331.253906 Z M 16.597656 331.253906 " fill-opacity="1" fill-rule="nonzero"/><path fill="#10d7e2" d="M 115.648438 262.761719 C 117.378906 262.761719 117.378906 260.070312 115.648438 260.070312 C 113.914062 260.070312 113.914062 262.761719 115.648438 262.761719 Z M 115.648438 262.761719 " fill-opacity="1" fill-rule="nonzero"/><path fill="#10d7e2" d="M 136.660156 193.917969 C 139.148438 193.917969 139.152344 190.054688 136.660156 190.054688 C 134.171875 190.054688 134.171875 193.917969 136.660156 193.917969 Z M 136.660156 193.917969 " fill-opacity="1" fill-rule="nonzero"/><path fill="#10d7e2" d="M 259.324219 54.203125 C 261.269531 54.203125 261.273438 51.179688 259.324219 51.179688 C 257.375 51.179688 257.375 54.203125 259.324219 54.203125 Z M 259.324219 54.203125 " fill-opacity="1" fill-rule="nonzero"/><path fill="#10d7e2" d="M 268.226562 139.738281 C 270.066406 139.738281 270.066406 136.882812 268.226562 136.882812 C 266.382812 136.882812 266.382812 139.738281 268.226562 139.738281 Z M 268.226562 139.738281 " fill-opacity="1" fill-rule="nonzero"/><path fill="#10d7e2" d="M 272.394531 135.011719 L 272.179688 134.824219 C 272.066406 134.703125 271.933594 134.613281 271.777344 134.5625 C 271.625 134.484375 271.464844 134.449219 271.289062 134.457031 C 271.117188 134.449219 270.953125 134.484375 270.804688 134.5625 C 270.648438 134.613281 270.511719 134.703125 270.398438 134.824219 L 270.203125 135.082031 C 270.089844 135.277344 270.03125 135.488281 270.03125 135.71875 L 270.078125 136.050781 C 270.136719 136.265625 270.246094 136.449219 270.402344 136.609375 L 270.613281 136.796875 C 270.726562 136.917969 270.863281 137.007812 271.019531 137.058594 C 271.167969 137.136719 271.332031 137.171875 271.503906 137.167969 C 271.675781 137.171875 271.839844 137.136719 271.988281 137.058594 C 272.144531 137.007812 272.28125 136.917969 272.394531 136.796875 L 272.589844 136.539062 C 272.707031 136.34375 272.761719 136.132812 272.761719 135.902344 L 272.71875 135.570312 C 272.65625 135.355469 272.550781 135.171875 272.394531 135.011719 Z M 272.394531 135.011719 " fill-opacity="1" fill-rule="nonzero"/><path fill="#10d7e2" d="M 244.011719 142.035156 C 246.171875 142.035156 246.175781 138.671875 244.011719 138.671875 C 241.84375 138.671875 241.84375 142.035156 244.011719 142.035156 Z M 244.011719 142.035156 " fill-opacity="1" fill-rule="nonzero"/><path fill="#10d7e2" d="M 238.066406 139.671875 C 239.582031 139.671875 239.582031 137.316406 238.066406 137.316406 C 236.550781 137.316406 236.550781 139.671875 238.066406 139.671875 Z M 238.066406 139.671875 " fill-opacity="1" fill-rule="nonzero"/><path fill="#10d7e2" d="M 319.890625 102.160156 C 321.835938 102.160156 321.839844 99.136719 319.890625 99.136719 C 317.941406 99.136719 317.941406 102.160156 319.890625 102.160156 Z M 319.890625 102.160156 " fill-opacity="1" fill-rule="nonzero"/><path fill="#10d7e2" d="M 26.714844 95.144531 L 26.984375 95.050781 C 27.148438 95.011719 27.292969 94.933594 27.414062 94.824219 C 27.550781 94.734375 27.65625 94.617188 27.738281 94.472656 C 27.828125 94.328125 27.878906 94.171875 27.886719 94.003906 C 27.921875 93.835938 27.917969 93.667969 27.863281 93.5 L 27.738281 93.199219 C 27.625 93.007812 27.472656 92.859375 27.285156 92.746094 L 26.984375 92.617188 C 26.761719 92.558594 26.535156 92.558594 26.3125 92.617188 L 26.046875 92.714844 C 25.882812 92.75 25.738281 92.828125 25.617188 92.9375 C 25.480469 93.027344 25.371094 93.144531 25.292969 93.292969 C 25.199219 93.4375 25.152344 93.59375 25.144531 93.761719 C 25.105469 93.929688 25.113281 94.09375 25.164062 94.261719 L 25.292969 94.5625 C 25.40625 94.753906 25.554688 94.902344 25.746094 95.015625 L 26.046875 95.144531 C 26.269531 95.203125 26.492188 95.203125 26.714844 95.144531 Z M 26.714844 95.144531 " fill-opacity="1" fill-rule="nonzero"/><path fill="#10d7e2" d="M 24.34375 84.902344 C 25.75 84.902344 25.753906 82.71875 24.34375 82.71875 C 22.9375 82.71875 22.9375 84.902344 24.34375 84.902344 Z M 24.34375 84.902344 " fill-opacity="1" fill-rule="nonzero"/><path fill="#10d7e2" d="M 101.210938 149.8125 L 101.359375 149.761719 C 102.679688 149.300781 102.109375 147.1875 100.777344 147.652344 L 100.628906 147.707031 C 99.308594 148.167969 99.878906 150.277344 101.210938 149.8125 L 101.359375 149.761719 C 102.679688 149.300781 102.109375 147.1875 100.777344 147.652344 L 100.628906 147.707031 C 99.308594 148.167969 99.878906 150.277344 101.210938 149.8125 Z M 101.210938 149.8125 " fill-opacity="1" fill-rule="nonzero"/></svg>